<?xml version="1.0" standalone="no"?><!DOCTYPE svg PUBLIC "-//W3C//DTD SVG 1.1//EN" "http://www.w3.org/Graphics/SVG/1.1/DTD/svg11.dtd"><svg class="icon" width="200px" height="200.00px" viewBox="0 0 1024 1024" version="1.1" xmlns="http://www.w3.org/2000/svg"><path d="M534.627824 512l356.477502-356.477879c6.2484-6.248023 6.2484-16.378672 0-22.627071-6.2484-6.2484-16.379048-6.2484-22.627071 0l-356.477502 356.477879-356.478255-356.478255c-6.248023-6.248023-16.378672-6.248023-22.627072 0-6.2484 6.2484-6.2484 16.379048 0 22.627824l356.477879 356.477502-356.477879 356.477879c-6.2484 6.248023-6.2484 16.378295 0 22.627071 6.248023 6.248023 16.379048 6.248023 22.627072 0l356.477878-356.477879 356.477879 356.477503c6.248023 6.2484 16.378295 6.2484 22.627071 0 6.248023-6.248023 6.248023-16.379048 0-22.627072l-356.477502-356.477502z"  /></svg>