<?xml version="1.0" encoding="UTF-8"?>
<svg width="44px" height="44px" viewBox="0 0 44 44" version="1.1" xmlns="http://www.w3.org/2000/svg" xmlns:xlink="http://www.w3.org/1999/xlink">
    <!-- Generator: Sketch 52.4 (67378) - http://www.bohemiancoding.com/sketch -->
    <title>icon_share_moments</title>
    <desc>Created with Sketch.</desc>
    <defs>
        <linearGradient x1="50%" y1="0%" x2="50%" y2="96.9924133%" id="linearGradient-1">
            <stop stop-color="#2DC100" stop-opacity="0.271654212" offset="0%"></stop>
            <stop stop-color="#12D7FF" offset="97.1978866%"></stop>
        </linearGradient>
    </defs>
    <g id="首页" stroke="none" stroke-width="1" fill="none" fill-rule="evenodd">
        <g id="首页-辅食详情-分享" transform="translate(-118.000000, -509.000000)">
            <g id="Group-13" transform="translate(0.000000, 428.000000)">
                <g id="Group-12" transform="translate(0.000000, 57.000000)">
                    <g id="Group-9-Copy" transform="translate(95.000000, 16.000000)">
                        <g id="Group-8" transform="translate(23.000000, 8.000000)">
                            <rect id="Rectangle" fill="url(#linearGradient-1)" fill-rule="nonzero" opacity="0.100000001" x="0" y="0" width="44" height="44" rx="22"></rect>
                            <g id="朋友圈" transform="translate(10.000000, 10.000000)">
                                <g id="Group">
                                    <path d="M11.7731056,4.23516474e-22 C11.4591557,4.23516474e-22 10.9882319,4.23516474e-22 10.5173081,0.156974741 C9.41848448,0.156974741 8.47663697,0.47092469 7.37780865,0.784874639 C7.37780865,0.784874639 15.3835242,8.63361171 15.5405027,8.94756865 L15.5405027,0.627896169 C15.3835279,0.470921428 15.2265527,0.470921428 14.9126028,0.470921428 C13.9707529,0.156971479 12.8719316,-2.33009455e-06 11.7731033,-2.33009455e-06 L11.7731056,4.23516474e-22 Z" id="Path" fill="#F95452"></path>
                                    <path d="M20.2497566,3.45345643 L19.3079067,2.51160658 C18.523033,1.88370668 17.5811832,1.25580912 16.6393426,0.941859167 L16.6393426,12.5579863 L22.6043847,6.59294426 C22.4474099,6.43596952 22.4474099,6.12202051 22.2904347,5.96504437 C21.505561,5.02319452 20.8776611,4.23832081 20.2497635,3.45345876 L20.2497566,3.45345643 Z" id="Path" fill="#6467F0"></path>
                                    <path d="M22.7613422,7.53478013 C22.7613422,7.53478013 14.9126051,15.5404957 14.5986482,15.6974741 L23.0752758,15.6974741 C23.2322505,15.3835242 23.2322505,15.2265504 23.2322505,14.9126004 C23.5462005,13.9707506 23.7031743,12.8719293 23.7031743,11.9300794 C23.7031743,11.4591557 23.7031743,10.9882296 23.5461996,10.5173058 C23.3892248,9.41848215 23.2322496,8.47663464 22.7613258,7.53478479 L22.7613422,7.53478013 Z" id="Path" fill="#5283F0"></path>
                                    <path d="M11.1452127,16.6393217 L17.1102571,22.6043637 C17.2672318,22.4473889 17.5811808,22.4473889 17.738157,22.2904137 C18.6800068,21.81949 19.4648805,21.1915901 20.2497426,20.4067164 L21.1915924,19.4648665 C21.8194923,18.6799928 22.4473899,17.738143 22.7613398,16.7963025 C22.6043651,16.6393277 11.4591463,16.6393277 11.1452127,16.6393217 Z" id="Path" fill="#00B1FE"></path>
                                    <path d="M8.00571088,14.7556103 L8.00571554,23.2322543 C8.31966549,23.389229 8.4766393,23.389229 8.79058925,23.389229 C9.73243909,23.703179 10.8312604,23.8601528 11.7731103,23.8601528 C12.244034,23.8601528 12.7149601,23.8601528 13.1858839,23.703178 C14.2847075,23.5462033 15.226555,23.3892281 16.3253834,22.9183043 C16.1684086,22.9183043 8.31966782,14.9125888 8.00571088,14.7556103 Z" id="Path" fill="#65D020"></path>
                                    <path d="M7.22084649,11.1452127 L1.25580446,17.1102571 C1.4127792,17.2672318 1.4127792,17.5811808 1.5697544,17.738157 C2.04067816,18.6800068 2.66857806,19.4648805 3.45345177,20.2497426 L4.39530161,21.1915924 C5.18017532,21.8194923 6.12202517,22.4473899 7.06386569,22.7613398 C7.22084649,22.7613398 7.06386569,11.6161248 7.22084649,11.1452127 Z" id="Path" fill="#9AD122"></path>
                                    <path d="M0.470923758,8.79058459 C0.156973809,9.73243443 0,10.8312558 0,11.9300841 C0,12.4010078 0,12.8719339 0.156974741,13.3428577 C0.313949483,14.4416813 0.47092469,15.3835288 0.941848448,16.4823572 C0.941848448,16.4823572 8.79058552,8.47664163 9.10454246,8.31966316 L0.62791481,8.31966316 C0.470940069,8.31966316 0.470940069,8.4766379 0.470940069,8.79058692 L0.470923758,8.79058459 Z" id="Path" fill="#FFC817"></path>
                                    <path d="M5.96504204,1.56974741 C5.02319219,2.19764731 4.23831848,2.82554488 3.45345643,3.45344478 C3.13950648,3.76739473 2.82555653,4.23831848 2.51160658,4.55226843 C1.88370668,5.33714214 1.41278292,6.27899199 0.941859167,7.22083251 L12.5579863,7.22083251 L6.59294426,1.25579047 C6.27899432,1.41276522 6.12202051,1.56974042 5.96504437,1.56974042 L5.96504204,1.56974741 Z" id="Path" fill="#FF7612"></path>
                                </g>
                            </g>
                        </g>
                    </g>
                </g>
            </g>
        </g>
    </g>
</svg>