<?xml version="1.0" encoding="UTF-8"?>
<svg width="24px" height="24px" viewBox="0 0 24 24" version="1.1" xmlns="http://www.w3.org/2000/svg" xmlns:xlink="http://www.w3.org/1999/xlink">
    <!-- Generator: Sketch 52.4 (67378) - http://www.bohemiancoding.com/sketch -->
    <title>icon_lists_weibo copy 2</title>
    <desc>Created with Sketch.</desc>
    <defs>
        <linearGradient x1="50%" y1="0%" x2="50%" y2="97.2791727%" id="linearGradient-1">
            <stop stop-color="#FFDC75" offset="0%"></stop>
            <stop stop-color="#FF4030" offset="100%"></stop>
        </linearGradient>
    </defs>
    <g id="1.1.0" stroke="none" stroke-width="1" fill="none" fill-rule="evenodd">
        <g id="我的-未登录" transform="translate(-16.000000, -295.000000)">
            <g id="Group-13-Copy-2" transform="translate(0.000000, 176.000000)">
                <g id="列表/常规-copy-4" transform="translate(0.000000, 105.000000)">
                    <g id="Group-12" transform="translate(16.000000, 14.000000)">
                        <rect id="Rectangle-3" fill="#D8D8D8" fill-rule="nonzero" opacity="0" x="0" y="0" width="24" height="24"></rect>
                        <g id="SVG-Layer" transform="translate(1.000000, 3.000000)">
                            <g id="surface1">
                                <path d="M8.9003905,16.449219 C5.3496095,16.8007815 2.25,15.199219 2,12.9003905 C1.75,10.5996095 4.5,8.4003905 8.0507815,8.0507815 C11.6503905,7.699219 14.699219,9.3007815 14.949219,11.5996095 C15.199219,13.949219 12.5,16.0996095 8.9003905,16.449219 M16.3496095,8.949219 C17.5996095,9.3496095 19,10.25 19,11.9003905 C19,14.5996095 15.0507815,18 9.1503905,18 C4.5996095,18 0,15.8496095 0,12.25 C0,10.4003905 1.199219,8.25 3.25,6.199219 C6,3.5 9.199219,2.25 10.4003905,3.449219 C10.949219,3.949219 11,4.8496095 10.6503905,5.949219 C10.449219,6.5 11.1503905,6.199219 11.1503905,6.199219 C13.3496095,5.3007815 15.3007815,5.25 16,6.25 C16.4003905,6.8007815 16.3496095,7.5507815 16,8.4003905 C15.8496095,8.8007815 16.0507815,8.8496095 16.3496095,8.949219 Z M19,6 C19,6.3007815 18.949219,6.5996095 18.8007815,6.9003905 C18.75,6.949219 18.75,6.949219 18.75,7 C18.75,7 18.75,7.0507815 18.75,7.0507815 C18.5996095,7.3007815 18.3496095,7.5 18.0507815,7.5 C17.6503905,7.5 17.3007815,7.1503905 17.3007815,6.75 C17.3007815,6.6503905 17.3007815,6.5996095 17.3496095,6.5 C17.4003905,6.3496095 17.449219,6.1503905 17.449219,6 C17.449219,5.1503905 16.8007815,4.5 15.949219,4.5 C15.9003905,4.5 15.8007815,4.5 15.75,4.5 C15.75,4.5 15.699219,4.5 15.699219,4.5 C15.3007815,4.5 14.949219,4.1503905 14.949219,3.75 C14.949219,3.3496095 15.25,3.0507815 15.5996095,3 C15.6503905,3 15.6503905,3 15.6503905,3 C15.8007815,3 15.9003905,3 16,3 C17.6503905,3 19,4.3496095 19,6 Z" id="Combined-Shape" fill="url(#linearGradient-1)" fill-rule="nonzero"></path>
                                <path d="M21.6503905,8 C21.5507815,8.3007815 21.25,8.5 20.949219,8.5 C20.5507815,8.5 20.199219,8.1503905 20.199219,7.75 C20.199219,7.6503905 20.199219,7.5507815 20.25,7.449219 C20.4003905,7 20.5,6.5 20.5,6 C20.5,3.5 18.5,1.5 16,1.5 C15.8007815,1.5 15.5507815,1.5 15.3496095,1.5507815 C15.3496095,1.5507815 15.3496095,1.5507815 15.3007815,1.5507815 C15.3007815,1.5507815 15.25,1.5507815 15.25,1.5507815 C14.8496095,1.5507815 14.5,1.199219 14.5,0.8007815 C14.5,0.4003905 14.8496095,0.0507815 15.25,0.0507815 C15.5,0 15.75,0 16,0 C19.3007815,0 22,2.699219 22,6 C22,6.699219 21.9003905,7.3496095 21.6503905,8 Z" id="Shape" fill="#FFA55D" opacity="0.389999986"></path>
                                <path d="M9.449219,12.199219 C9.3007815,12.449219 9,12.5996095 8.75,12.5 C8.5,12.4003905 8.449219,12.0996095 8.5507815,11.8496095 C8.699219,11.5996095 9,11.449219 9.199219,11.5996095 C9.5,11.6503905 9.5507815,11.9003905 9.449219,12.199219 M7.8007815,13.4003905 C7.449219,13.9003905 6.6503905,14.1503905 6.0507815,13.9003905 C5.449219,13.6503905 5.3007815,13.0507815 5.6503905,12.5996095 C6,12.0996095 6.75,11.9003905 7.3496095,12.0996095 C8,12.3007815 8.199219,12.9003905 7.8007815,13.4003905 M9.25,9.5996095 C7.5,9.1503905 5.5507815,10 4.8007815,11.5 C4.0507815,13.0507815 4.75,14.75 6.5507815,15.3007815 C8.3496095,15.9003905 10.5,15 11.25,13.3496095 C12,11.75 11.0507815,10.0507815 9.25,9.5996095" id="Shape" fill="#FFFFFF" opacity="0.389999986"></path>
                            </g>
                        </g>
                    </g>
                </g>
            </g>
        </g>
    </g>
</svg>