<?xml version="1.0" encoding="UTF-8"?>
<svg width="24px" height="24px" viewBox="0 0 24 24" version="1.1" xmlns="http://www.w3.org/2000/svg" xmlns:xlink="http://www.w3.org/1999/xlink">
    <!-- Generator: Sketch 52.4 (67378) - http://www.bohemiancoding.com/sketch -->
    <title>icon_foodmaterial</title>
    <desc>Created with Sketch.</desc>
    <g id="分类" stroke="none" stroke-width="1" fill="none" fill-rule="evenodd">
        <g transform="translate(-16.000000, -683.000000)" id="Group-42">
            <g transform="translate(0.000000, 670.000000)">
                <g id="Group-8">
                    <g id="Group-4" transform="translate(16.000000, 13.000000)">
                        <rect id="Rectangle" fill="#D8D8D8" fill-rule="nonzero" opacity="0" x="0" y="0" width="24" height="24"></rect>
                        <g id="幸運食物" transform="translate(2.000000, 4.000000)">
                            <path d="M19.7060846,6.04087185 C19.7060846,5.76662993 19.6475162,5.49841008 19.5358319,5.23845959 C19.3619078,4.65132531 19.0588869,4.29230809 18.6462489,4.09299087 C18.1102733,3.63057783 17.3892503,3.21659708 16.5263767,2.869783 C18.1736995,1.69349062 19.9041541,1.47361712 19.4699114,0.563045943 C19.0484562,-0.32068907 16.0868273,0.679127445 14.9467147,2.03697246 C14.8747574,2.12267051 14.8051086,2.21023727 14.7376143,2.29921105 C13.3209373,1.94716337 11.6846166,1.74611021 9.94137242,1.74611021 C6.14280159,1.74611021 2.85096182,2.70008847 1.2364951,4.0930231 C0.823857122,4.29234011 0.520834699,4.65135754 0.346912036,5.23849181 C0.235205617,5.49844446 0.176659338,5.76666215 0.176659338,6.04090407 C0.176659338,6.11039902 0.1805507,6.17947631 0.187981681,6.24813572 C0.1805727,6.38184926 0.176659338,6.52220147 0.176659338,6.67002918 C0.176659338,11.7167792 4.54843396,15.8078601 9.94138359,15.8078601 C15.3342688,15.8078601 19.7060864,11.7168007 19.7060864,6.67002918 C19.7060864,6.52220126 19.702195,6.38184818 19.694764,6.24813572 C19.702173,6.17943226 19.7060644,6.11035498 19.7060644,6.04088195 L19.7060846,6.04087185 Z" id="Shape" fill="#8AD7DF" fill-rule="nonzero"></path>
                            <path d="M9.94157523,9.13572115 C5.49827905,9.13572115 1.89624751,7.75105372 1.89624751,6.04297732 C1.89624751,4.33490951 5.49823608,2.95023349 9.94157523,2.95023349 C11.4364104,2.95023349 12.8359966,3.10696541 14.0352987,3.37999883 C13.4592891,4.39074317 13.0761535,5.34335717 12.705264,5.61222799 C11.502679,6.48415733 10.712906,5.74912938 8.80373992,6.7506842 C6.89457383,7.75223751 6.86366208,7.94658754 6.86366208,7.94658754 C6.86366208,7.94658754 10.0760525,8.19745873 11.8564003,8.05251186 C13.8102174,7.8935374 13.7636973,7.93585888 13.6950589,7.61384339 C13.488113,6.64240905 14.332804,5.15149482 15.3645429,3.92941918 C15.4020495,3.8850092 15.4400837,3.84180837 15.4783599,3.79913541 C17.0233869,4.3627013 17.9868999,5.1595534 17.9868999,6.04296615 C17.9869,7.75103396 14.3849114,9.13570998 9.94157222,9.13570998 L9.94157523,9.13572115 Z" id="Path" fill="#FFFFFF" opacity="0.389999986"></path>
                        </g>
                    </g>
                </g>
            </g>
        </g>
    </g>
</svg>