<?xml version="1.0" encoding="UTF-8"?>
<svg width="44px" height="44px" viewBox="0 0 44 44" version="1.1" xmlns="http://www.w3.org/2000/svg" xmlns:xlink="http://www.w3.org/1999/xlink">
    <!-- Generator: Sketch 52.4 (67378) - http://www.bohemiancoding.com/sketch -->
    <title>icon_share_qq</title>
    <desc>Created with Sketch.</desc>
    <g id="首页" stroke="none" stroke-width="1" fill="none" fill-rule="evenodd">
        <g id="首页-辅食详情-分享" transform="translate(-308.000000, -509.000000)">
            <g id="Group-13" transform="translate(0.000000, 428.000000)">
                <g id="Group-12" transform="translate(0.000000, 57.000000)">
                    <g id="Group-9-Copy-3" transform="translate(285.000000, 16.000000)">
                        <g id="Group-8" transform="translate(20.000000, 8.000000)">
                            <rect id="Rectangle" fill="#000000" fill-rule="nonzero" opacity="0.03" x="3" y="0" width="44" height="44" rx="22"></rect>
                            <g id="QQ" transform="translate(14.000000, 10.000000)">
                                <g id="Group" transform="translate(1.047964, 0.450002)">
                                    <path d="M9.89215539,21.7195682 C9.23401231,21.2225026 8.13400601,20.7932108 6.4449118,20.946862 C3.30605051,21.2315518 2.5328365,22.0946446 2.5328365,22.6097804 C2.5328365,23.1249187 4.29098587,23.0977968 6.4449118,23.0977968 C7.66916906,23.0977968 8.79677063,23.0571155 9.54698463,22.9396359 C9.79551178,22.8989546 10.0440384,22.9034923 10.2419424,22.912515 C10.9875507,23.0480665 12.1749669,23.093259 13.46365,23.093259 C15.6176048,23.093259 17.3757253,23.1203799 17.3757253,22.6052426 C17.3757253,22.1759534 16.6025217,21.2225023 13.46365,20.9423243 C11.5076228,20.7615802 10.4306375,21.2270141 9.89215014,21.719568 L9.89215539,21.7195682 Z" id="Path" fill="#F9AE08"></path>
                                    <path d="M6.49553859,0.797628975 C1.98972758,3.23325611 2.56505594,9.71318232 2.56505594,9.71318232 C2.56505594,9.71318232 1.94372494,11.1049718 1.6675752,11.800855 C1.35001811,12.6187532 0.793094478,14.2635757 0.793094478,14.2635757 C0.793094478,14.2635757 0.397289047,15.244146 0.153356125,16.6133279 C-0.0905760103,17.9825073 0.0382957043,19.0579759 0.328257522,18.9901995 C0.903559623,18.8591595 2.38096399,16.4642142 2.38096399,16.4642142 C2.38096402,16.4642142 2.26130882,19.5053482 4.94453631,21.3625542 C7.14911529,23.002865 9.78173226,22.8898966 9.78173226,22.8898966 L10.0762894,22.8898966 C10.0762894,22.8898966 12.7503189,23.0254481 14.9594906,21.3806269 C17.6427107,19.5234028 17.5230629,16.4822868 17.5230629,16.4822868 C17.5230629,16.4822868 19.000441,18.8772311 19.5757694,19.0082722 C19.8657312,19.0760478 19.9946037,18.0005799 19.7506707,16.6314006 C19.5067386,15.2622213 19.1109324,14.2816483 19.1109324,14.2816483 C19.1109324,14.2816483 18.5540376,12.6368285 18.2364517,11.8189277 C17.9648972,11.118507 17.3389709,9.731255 17.3389709,9.731255 C17.3389709,9.731255 17.9142468,3.25133652 13.4084358,0.815701652 C13.132286,0.693684268 12.8699457,0.576204647 12.6030128,0.485819862 C11.2084494,-0.0383393415 9.03148675,-0.363686204 6.49555172,0.797631553 L6.49553859,0.797628975 Z" id="Path" fill="#000000"></path>
                                    <path d="M4.636133,18.5067309 C5.37252442,20.6531565 7.04783281,22.0720499 9.97038009,22.0720499 C14.4577838,21.9048663 15.741861,18.8049688 15.741861,14.7742203 C15.741861,13.8930574 15.617584,13.0480373 15.3920844,12.2663076 C13.3209706,12.198532 7.91769988,12.198532 4.5671146,12.198532 C4.32777722,12.9983601 4.19890445,13.8704738 4.19890445,14.7787483 C4.19433643,16.1298317 4.26336722,17.422206 4.6361435,18.5067214 L4.636133,18.5067309 Z M6.69805627,4.76061648 C6.69768009,5.7713432 7.27846307,6.59116728 7.99526549,6.5916958 C8.71206791,6.59222344 9.29346991,5.77329484 9.29384541,4.76256812 L9.29384541,4.76061583 C9.29422159,3.74988911 8.71343861,2.93009081 7.99663619,2.92953651 C7.27983377,2.92900887 6.69843177,3.74793747 6.69805627,4.75866419 L6.69805627,4.76061648 Z M10.5917242,4.76061648 C10.5917242,5.77136898 11.1728032,6.59071868 11.8896057,6.59071868 C12.6064081,6.59071868 13.1874871,5.7713432 13.1874871,4.76061648 C13.1874871,3.74988975 12.6064081,2.93051427 11.8896057,2.93051427 C11.1728032,2.93051427 10.5917242,3.74986397 10.5917242,4.76061648 Z" id="Shape" fill="#FFFFFF" fill-rule="nonzero"></path>
                                    <path d="M7.84408096,4.88261349 C7.84378539,5.28692068 8.08876567,5.61498232 8.39124948,5.61535099 C8.69373407,5.61574673 8.939169,5.28831803 8.93946572,4.88401084 L8.93946572,4.88261257 C8.93976129,4.47830538 8.69478101,4.15024374 8.3922972,4.14987507 C8.0898126,4.14947933 7.84437768,4.47690803 7.84408096,4.88121522 L7.84408096,4.88261347 Z M10.8909055,4.96846103 C10.8909055,4.96846103 10.8679042,5.22602994 11.1210263,5.19890907 C11.4155834,4.78768991 11.8297936,4.82386105 11.8297936,4.82386105 C11.8297935,4.82386105 12.2762232,4.82386105 12.4096909,5.0046051 C12.6674346,5.0046051 12.704248,4.73347627 12.704248,4.73347627 C12.704248,4.73347627 12.4741275,4.34937902 11.7975767,4.42169293 C11.1578384,4.50754047 10.8909055,4.96846232 10.8909055,4.96846232 L10.8909055,4.96846103 Z" id="Shape" fill="#000000" fill-rule="nonzero"></path>
                                    <path d="M5.52443894,8.20391267 C5.52443894,8.20391267 5.27128999,8.05931217 5.58427991,7.86951916 C5.89724174,7.67521467 6.87756608,7.16458935 9.93358901,7.13746745 C12.800909,7.11034657 14.0159783,7.63002138 14.3611491,7.93278384 C14.485426,8.02316914 14.4532082,8.07287313 14.4393966,8.12257712 C14.3611491,8.38014602 11.93107,9.54600026 10.0072413,9.49175644 C7.300966,9.49175644 5.5244329,8.2039119 5.5244329,8.2039119 L5.52443894,8.20391267 Z" id="Path" fill="#F9AE08"></path>
                                    <path d="M9.49635784,10.7389344 C5.29430759,10.5852846 2.54205331,9.7086577 2.54205331,9.7086577 C2.54205331,9.7086577 2.14624788,10.5988441 1.97594175,11.0145749 C1.79185059,11.4574251 1.47426645,12.2888585 1.47426645,12.2888585 C1.47426645,12.2888585 3.80771793,12.9983 5.29890024,13.1655097 L5.29890024,16.5229542 C5.29890024,16.5229542 6.9695871,16.8347376 8.52520304,16.6088018 L8.52520304,13.5360599 C8.52520304,13.5360599 13.6109114,13.8930378 18.4020759,12.2934074 C18.1903616,11.7104926 18.0108657,11.2721541 17.854369,10.8971061 C17.5321904,10.1289116 17.3342864,9.73579095 17.3342864,9.73579095 C17.3342864,9.73579098 13.2519496,10.9016179 9.49634996,10.7389457 L9.49635784,10.7389344 Z" id="Path" fill="#E82220"></path>
                                </g>
                            </g>
                        </g>
                    </g>
                </g>
            </g>
        </g>
    </g>
</svg>