<?xml version="1.0" encoding="UTF-8"?>
<svg width="24px" height="24px" viewBox="0 0 24 24" version="1.1" xmlns="http://www.w3.org/2000/svg" xmlns:xlink="http://www.w3.org/1999/xlink">
    <!-- Generator: Sketch 52.4 (67378) - http://www.bohemiancoding.com/sketch -->
    <title>icon_lists_setting copy 2</title>
    <desc>Created with Sketch.</desc>
    <defs>
        <linearGradient x1="50%" y1="0%" x2="50%" y2="97.2791727%" id="linearGradient-1">
            <stop stop-color="#75D6FF" offset="0%"></stop>
            <stop stop-color="#3058FF" offset="100%"></stop>
        </linearGradient>
    </defs>
    <g id="1.1.0" stroke="none" stroke-width="1" fill="none" fill-rule="evenodd">
        <g id="我的-未登录" transform="translate(-16.000000, -347.000000)">
            <g id="Group-13-Copy-2" transform="translate(0.000000, 176.000000)">
                <g id="列表/常规-copy-6" transform="translate(0.000000, 157.000000)">
                    <rect id="Rectangle-10" fill="#FFFFFF" opacity="0" x="0" y="0" width="375" height="52"></rect>
                    <rect id="Rectangle-3" fill="#D8D8D8" fill-rule="nonzero" opacity="0" x="16" y="14" width="24" height="24"></rect>
                    <g id="setting" transform="translate(19.000000, 16.000000)">
                        <path d="M8.42801213,0.986160327 L0.654526475,5.27016534 C0.300459266,5.46519425 0.0823818637,5.82579851 0.0825258092,6.21600726 L0.0825258092,14.7840172 C0.0825258092,15.1741973 0.300766493,15.5345589 0.654526475,15.7298592 L8.428012,20.0138641 C8.78201476,20.2087583 9.21801058,20.2087583 9.57201334,20.0138642 L17.345499,15.7298591 C17.6995662,15.5348302 17.9176436,15.174226 17.9174997,14.7840172 L17.9174997,6.21600726 C17.9174997,5.82582721 17.699259,5.46546557 17.345499,5.27016534 L9.57201341,0.986160348 C9.21801065,0.791266176 8.78201483,0.791266176 8.42801208,0.986160358 Z" id="Shape" fill="url(#linearGradient-1)" fill-rule="nonzero"></path>
                        <path d="M8.43689993,13.4661472 L6.63099105,12.4710465 C6.25863405,12.2658686 6.02736676,11.8743815 6.02736676,11.4492372 L6.02736676,9.55121794 C6.02736676,9.12607357 6.25863405,8.73458654 6.63099105,8.52940857 L8.43697042,7.53426902 C8.78748647,7.34112595 9.21253913,7.34112595 9.56305518,7.53426902 L11.3690345,8.52940857 C11.7413916,8.73458654 11.9726588,9.12607357 11.9726588,9.55121794 L11.9726588,11.4489103 C11.9726588,11.8740104 11.7414392,12.265464 11.3691427,12.4706601 L9.56309283,13.4660876 C9.21255879,13.659289 8.78745441,13.6593115 8.43689993,13.4661472 Z" id="Path" fill="#FFFFFF" opacity="0.389999986"></path>
                    </g>
                </g>
            </g>
        </g>
    </g>
</svg>