<?xml version="1.0" encoding="UTF-8"?>
<svg width="52px" height="52px" viewBox="0 0 52 52" version="1.1" xmlns="http://www.w3.org/2000/svg" xmlns:xlink="http://www.w3.org/1999/xlink">
    <!-- Generator: Sketch 52.4 (67378) - http://www.bohemiancoding.com/sketch -->
    <title>icon_login_wechat</title>
    <desc>Created with Sketch.</desc>
    <g id="Page-1" stroke="none" stroke-width="1" fill="none" fill-rule="evenodd">
        <g id="快捷登录" transform="translate(-162.000000, -463.000000)" fill="#03C02F">
            <g id="Group-8" transform="translate(72.000000, 463.000000)">
                <g id="Group-6" transform="translate(90.000000, 0.000000)">
                    <g id="Group" transform="translate(1.000000, 1.000000)">
                        <circle id="Oval" stroke-opacity="0.1" stroke="#03C02F" fill-opacity="0.03" cx="25" cy="25" r="25.5"></circle>
                        <g id="share-icon" transform="translate(14.000000, 16.000000)" fill-rule="nonzero">
                            <path d="M14.2810624,5.33774043 C14.5231333,5.33774043 14.7621871,5.35600043 15,5.38327802 C14.3540803,2.29454019 11.1379124,8.8817842e-16 7.46650815,8.8817842e-16 C3.36232529,8.8817842e-16 -2.27373675e-13,2.87214075 -2.27373675e-13,6.51924491 C-2.27373675e-13,8.62446562 1.11852852,10.3531956 2.98803879,11.6939942 L2.24131498,14 L4.850858,12.6561289 C5.78532116,12.8460729 6.53442942,13.0409628 7.46648381,13.0409628 C7.70067139,13.0409628 7.93308278,13.0291974 8.16366933,13.0106127 C8.01758495,12.4980837 7.93308278,11.9613746 7.93308278,11.4045819 C7.93313145,8.05553294 10.7340635,5.33774043 14.2810624,5.33774043 Z M10.0907348,3 C10.6376292,3 11,3.39625544 11,3.99853972 C11,4.59829461 10.6376055,5 10.0907348,5 C9.54623152,5 9,4.59826854 9,3.99853972 C9.00002369,3.39625544 9.54625521,3 10.0907348,3 Z M5.09363873,5 C4.54943391,5 4,4.59826854 4,3.99853972 C4,3.39625544 4.54945757,3 5.09363873,3 C5.63779621,3 6,3.39625544 6,3.99853972 C6,4.59826854 5.63779621,5 5.09363873,5 Z M22,11.6132468 C22,13.3576504 20.8568413,14.9022688 19.3216229,16.0670278 L19.8966539,18 L17.7994134,16.8380893 C17.0346078,17.0319007 16.2660641,17.2264179 15.5043487,17.2264179 C11.8657593,17.2264179 9,14.7112553 9,11.6132468 C9,8.52083407 11.8657593,6 15.5043487,6 C18.9407777,6 22,8.52083407 22,11.6132468 Z M13.8887153,11 C14.5599537,11 15,10.5049763 15,9.99982081 C15,9.50157188 14.5599537,9 13.8887153,9 C13.4465278,9 13,9.50153931 13,9.99982081 C13,10.5049763 13.4465278,11 13.8887153,11 Z M17.8851279,11 C18.5527913,11 19.000029,10.5049763 19,9.99982081 C19,9.50157188 18.5527913,9 17.8851279,9 C17.4443638,9 17,9.50153931 17,9.99982081 C17,10.5049763 17.4443348,11 17.8851279,11 Z" id="Combined-Shape"></path>
                        </g>
                    </g>
                </g>
            </g>
        </g>
    </g>
</svg>