<?xml version="1.0" encoding="UTF-8"?>
<svg width="22px" height="22px" viewBox="0 0 22 22" version="1.1" xmlns="http://www.w3.org/2000/svg" xmlns:xlink="http://www.w3.org/1999/xlink">
    <!-- Generator: Sketch 52.4 (67378) - http://www.bohemiancoding.com/sketch -->
    <title>icon_searchstory_del</title>
    <desc>Created with Sketch.</desc>
    <g id="首页" stroke="none" stroke-width="1" fill="none" fill-rule="evenodd">
        <g id="搜索输入页" transform="translate(-337.000000, -97.000000)">
            <g id="Group-6" transform="translate(0.000000, 88.000000)">
                <g id="Group-14">
                    <g id="Group-11" transform="translate(337.000000, 9.000000)">
                        <rect id="Rectangle-5" fill="#D8D8D8" opacity="0" x="0" y="0" width="22" height="22"></rect>
                        <g id="trash-2" transform="translate(3.000000, 4.000000)" stroke="#9B9B9B" stroke-linecap="round" stroke-linejoin="round">
                            <polyline id="Shape" points="0 3.5 1.77777778 3.5 16 3.5"></polyline>
                            <path d="M14.2222222,3.5 L14.2222222,12.25 C14.2222222,13.2164983 13.426284,14 12.4444444,14 L3.55555556,14 C2.573716,14 1.77777778,13.2164983 1.77777778,12.25 L1.77777778,3.5 M4.44444444,3.5 L4.44444444,1.75 C4.44444444,0.783501688 5.24038267,0 6.22222222,0 L9.77777778,0 C10.7596173,0 11.5555556,0.783501688 11.5555556,1.75 L11.5555556,3.5" id="Shape"></path>
                            <path d="M6.22222222,6.125 L6.22222222,11.375" id="Shape"></path>
                            <path d="M9.77777778,6.125 L9.77777778,11.375" id="Shape"></path>
                        </g>
                    </g>
                </g>
            </g>
        </g>
    </g>
</svg>