<?xml version="1.0" encoding="UTF-8"?>
<svg width="24px" height="24px" viewBox="0 0 24 24" version="1.1" xmlns="http://www.w3.org/2000/svg" xmlns:xlink="http://www.w3.org/1999/xlink">
    <!-- Generator: Sketch 52.4 (67378) - http://www.bohemiancoding.com/sketch -->
    <title>icon_lists_qqqun copy 2</title>
    <desc>Created with Sketch.</desc>
    <defs>
        <linearGradient x1="50%" y1="0%" x2="50%" y2="97.2791727%" id="linearGradient-1">
            <stop stop-color="#494949" offset="0%"></stop>
            <stop stop-color="#595959" offset="98.9703757%"></stop>
        </linearGradient>
    </defs>
    <g id="1.1.0" stroke="none" stroke-width="1" fill="none" fill-rule="evenodd">
        <g id="我的-未登录" transform="translate(-16.000000, -243.000000)">
            <g id="Group-13-Copy-2" transform="translate(0.000000, 176.000000)">
                <g id="列表/常规-copy-3" transform="translate(0.000000, 53.000000)">
                    <g id="Group-11" transform="translate(16.000000, 14.000000)">
                        <rect id="Rectangle-3" fill="#D8D8D8" fill-rule="nonzero" opacity="0" x="0" y="0" width="24" height="24"></rect>
                        <path d="M18.8282768,10.398562 C18.8279714,10.398562 18.8276659,10.3988642 18.8273605,10.3988642 C18.8343857,10.1689032 18.8401891,9.93743129 18.8401891,9.70082228 C18.8401891,5.8597788 17.0075345,2.00030218 12.5001206,2 C7.99301216,2.00030218 6.16005216,5.8597788 6.16005216,9.70082228 C6.16005216,9.93743129 6.16585557,10.1689032 6.17318619,10.3988642 C6.17288074,10.3988642 6.1725753,10.398562 6.17226986,10.398562 C5.85919137,11.1561339 5.0271662,13.1281777 4.58702366,14.5293986 C3.72750867,17.2662667 4.00607217,18.3988473 4.21804921,18.4242306 C4.67315843,18.4789257 5.98930984,16.3639494 5.98930984,16.3639494 C5.98930984,17.5886956 6.62737907,19.186033 8.00614619,20.3400685 C7.47773079,20.4962969 6.87814731,20.7238405 6.45144424,21.0356929 C6.08613509,21.302218 6.13164602,21.5741824 6.19731614,21.6841769 C6.48626467,22.1661582 11.1512869,21.9917988 12.4992043,21.841614 C13.8471217,21.9917988 18.514282,22.1661582 18.8032305,21.6841769 C18.8692061,21.5741824 18.9144116,21.302218 18.5494079,21.0356929 C18.1227048,20.7238405 17.5228159,20.4962969 16.9944005,20.3400685 C18.3731676,19.186033 19.0112368,17.5886956 19.0112368,16.3639494 C19.0112368,16.3639494 20.3273882,18.4789257 20.7824975,18.4242306 C20.9944745,18.3988473 21.2715108,17.2408834 20.413523,14.5293986 C19.9801002,13.1602091 19.1386063,11.1561339 18.8282768,10.398562" id="Fill-285" fill="url(#linearGradient-1)" fill-rule="nonzero"></path>
                        <path d="M11.319607,13.6994119 L11.319607,16.3792567 C9.92491512,16.5716284 8.5327436,16.2937311 8.5327436,16.2937311 L8.5327436,13.3805336 C7.41804416,13.1942185 6.30275562,12.9410121 5.29471308,12.6403032 L6.2015939,10.4004499 C6.21083517,10.403335 8.91526831,11.2463667 12.5002422,11.2703765 L12.521591,11.2703765 C16.1124456,11.2462689 18.8201898,10.4004499 18.8201898,10.4004499 L19.7270706,12.6403032 C17.4584602,13.3170758 14.6473817,13.7532127 12.5215416,13.7277359 L12.5002422,13.7277848 C12.1257395,13.7322474 11.7299548,13.722387 11.319607,13.6994119 Z" id="Combined-Shape" fill="#FF5959"></path>
                    </g>
                </g>
            </g>
        </g>
    </g>
</svg>