<?xml version="1.0" encoding="UTF-8"?>
<svg width="52px" height="52px" viewBox="0 0 52 52" version="1.1" xmlns="http://www.w3.org/2000/svg" xmlns:xlink="http://www.w3.org/1999/xlink">
    <!-- Generator: Sketch 52.4 (67378) - http://www.bohemiancoding.com/sketch -->
    <title>icon_login_qq</title>
    <desc>Created with Sketch.</desc>
    <g id="Page-1" stroke="none" stroke-width="1" fill="none" fill-rule="evenodd">
        <g id="快捷登录" transform="translate(-252.000000, -463.000000)">
            <g id="Group-8" transform="translate(72.000000, 463.000000)">
                <g id="Group-5" transform="translate(180.000000, 0.000000)">
                    <g id="Group-3" transform="translate(1.000000, 1.000000)">
                        <circle id="Oval" stroke-opacity="0.1" stroke="#5EAADE" fill-opacity="0.03" fill="#0492F3" cx="25" cy="25" r="25.5"></circle>
                        <path d="M32.948296,29.6888212 C32.8264666,28.1762971 32.0202905,26.4923713 31.6891818,25.6464613 L30.8368505,23.4691207 C30.8097817,22.5633804 31.0804697,20.4797518 29.6592983,17.8733207 C28.238127,15.2668895 25.3822302,15.031945 24.8543688,15.0051757 C24.3265074,14.9784064 21.0239556,14.9516371 19.3997485,17.7893002 C17.7755413,20.6269634 18.2131866,23.4691207 18.2131866,23.4691207 L17.305295,25.6629137 C17.3052555,25.6629919 16.8822314,26.663773 16.5168223,27.8817957 C16.1513738,29.0998575 15.7859252,31.0139603 16.1513737,31.4021347 C16.5168223,31.7903091 17.8432331,29.6218784 17.9650625,29.4211282 C17.9650625,29.4211282 18.059823,30.4584875 18.3101996,31.0005951 L18.3414571,31.0683977 L18.354221,31.0959876 L18.368842,31.1275246 L18.3804204,31.1524181 L18.3975705,31.1890745 L18.4053948,31.2056831 C18.4296558,31.2570825 18.454328,31.3082909 18.4794092,31.3593038 L18.4866802,31.3740367 C18.495611,31.3920913 18.5047393,31.4104194 18.5141442,31.4290994 L18.5197555,31.4402369 C18.7855435,31.9672209 19.2380469,32.7311816 19.9648739,33.3646566 L19.9655457,33.3652428 L19.9198646,33.3800148 C19.5081817,33.514213 18.6966314,33.8078546 18.3519685,34.1364722 C18.2856993,34.1996634 18.2366594,34.2641442 18.2110922,34.3290549 C18.003591,34.8555308 18.373505,34.9180186 19.0051762,34.9536979 C19.6368079,34.9893773 22.6686718,35.0697243 24.1214168,34.868935 C24.1371443,34.8667856 24.151805,34.8645972 24.1666237,34.8624088 C24.2712238,34.8660041 24.3720699,34.8678408 24.4687668,34.8685442 L24.4746152,34.8685833 C24.5068607,34.8687787 24.53879,34.8688959 24.5701266,34.8688959 C24.5892921,34.8688959 24.6092875,34.8688178 24.6296385,34.8686614 L24.6377393,34.8686224 C24.708027,34.8681206 24.7783058,34.8667658 24.8485599,34.8645581 C24.8585971,34.8660041 24.86816,34.86745 24.8785924,34.8688959 C26.3313769,35.0696852 29.3632012,34.9893773 29.9948329,34.9536589 C30.6264646,34.9179795 30.9964181,34.8554917 30.7888774,34.3290158 C30.6228686,33.9077803 29.4699353,33.503857 29.0152189,33.3590683 C29.1214072,33.2657902 29.2238725,33.1684478 29.3223807,33.0672634 L29.331509,33.0579234 C29.3645208,33.0239665 29.3970852,32.9895868 29.4291938,32.9547932 C31.0669155,31.174537 30.9315715,30.0501873 30.9992633,29.4076849 C30.9992633,29.4076849 32.3800092,31.3753263 32.677687,31.4422691 C32.9753648,31.5092119 33.0701254,31.2013844 32.948296,29.6888212 Z" id="Shape" fill="#5EAADE" fill-rule="nonzero"></path>
                    </g>
                </g>
            </g>
        </g>
    </g>
</svg>