<?xml version="1.0" encoding="UTF-8"?>
<svg width="24px" height="24px" viewBox="0 0 24 24" version="1.1" xmlns="http://www.w3.org/2000/svg" xmlns:xlink="http://www.w3.org/1999/xlink">
    <!-- Generator: Sketch 52.4 (67378) - http://www.bohemiancoding.com/sketch -->
    <title>icon_lists_collected copy 3</title>
    <desc>Created with Sketch.</desc>
    <defs>
        <linearGradient x1="50%" y1="0%" x2="50%" y2="97.2791727%" id="linearGradient-1">
            <stop stop-color="#F9AE0A" offset="0%"></stop>
            <stop stop-color="#E82220" offset="100%"></stop>
        </linearGradient>
    </defs>
    <g id="1.1.0" stroke="none" stroke-width="1" fill="none" fill-rule="evenodd">
        <g id="我的-未登录" transform="translate(-16.000000, -190.000000)">
            <g id="Group-13-Copy-2" transform="translate(0.000000, 176.000000)">
                <g id="列表/常规-copy">
                    <g id="Group-9" transform="translate(16.000000, 14.000000)">
                        <g id="ic_collected">
                            <rect id="Rectangle" fill-opacity="0" fill="#D8D8D8" x="0" y="0" width="24" height="24"></rect>
                            <g id="分享" transform="translate(2.000000, 2.000000)">
                                <path d="M10.0000128,0.37715004 C4.68477224,0.37715004 0.37715004,4.68477224 0.37715004,10.0000128 C0.37715004,15.3152534 4.68477224,19.6228756 10.0000128,19.6228756 C15.3152534,19.6228756 19.6228756,15.3152534 19.6228756,10.0000128 C19.625024,4.68692068 15.3152534,0.37715004 10.0000128,0.37715004 Z" id="Shape" fill="url(#linearGradient-1)" fill-rule="nonzero"></path>
                                <path d="M15.8674024,10.1074348 L10.7734512,13.9037283 C10.6853652,13.9746268 10.5714978,14.0154472 10.4490368,14.0154472 C10.1654427,14.0154472 9.93341116,13.7963063 9.9140752,13.5191575 L9.9140752,11.6478663 L8.49395636,11.6478663 C6.73008712,11.6478663 5.1337962,12.3310702 3.94570888,13.448259 C3.90703696,13.4761887 3.86191972,13.4955247 3.80820872,13.4955247 C3.68574764,13.4955247 3.58477096,13.3966964 3.58477096,13.2742354 C3.58477096,13.2613447 3.5869194,13.2506025 3.5869194,13.2377119 C4.18203728,10.313685 6.81817316,8.09649496 9.9140752,7.97403388 L9.9140752,6.08555512 C9.9355596,5.80840636 10.1654427,5.58926548 10.4490368,5.58926548 C10.5650525,5.58926548 10.674623,5.6279374 10.762709,5.6923906 L15.8738478,9.49942628 C15.9576369,9.57462168 16.0134964,9.68204368 16.0134964,9.80020788 C16.0134964,9.9248174 15.9576369,10.0343878 15.8674024,10.1074348 Z" id="Path" fill="#FFFFFF" opacity="0.389999986"></path>
                            </g>
                        </g>
                    </g>
                </g>
            </g>
        </g>
    </g>
</svg>