<?xml version="1.0" encoding="UTF-8"?>
<svg width="52px" height="52px" viewBox="0 0 52 52" version="1.1" xmlns="http://www.w3.org/2000/svg" xmlns:xlink="http://www.w3.org/1999/xlink">
    <!-- Generator: Sketch 52.4 (67378) - http://www.bohemiancoding.com/sketch -->
    <title>icon_login_weibo</title>
    <desc>Created with Sketch.</desc>
    <g id="Page-1" stroke="none" stroke-width="1" fill="none" fill-rule="evenodd">
        <g id="快捷登录" transform="translate(-72.000000, -463.000000)" fill="#FF4300">
            <g id="Group-8" transform="translate(72.000000, 463.000000)">
                <g id="Group-4">
                    <g id="Group-2" transform="translate(1.000000, 1.000000)">
                        <circle id="Oval" stroke-opacity="0.06" stroke="#FF000E" fill-opacity="0.03" cx="25" cy="25" r="25.5"></circle>
                        <g id="微博" transform="translate(14.000000, 17.000000)" fill-rule="nonzero">
                            <path d="M17.3558293,7 C17.6590532,7 17.9102313,6.7780689 17.9554886,6.48749932 C17.9600143,6.46461982 17.9622772,6.44631623 17.9622772,6.42343673 C18.4171131,2.34173487 14.6087108,3.04642331 14.6087108,3.04642331 C14.2715438,3.04642331 14,3.31640135 14,3.66188172 C14,3.99821029 14.2715438,4.26818833 14.6087108,4.26818833 C17.3422521,3.66416967 16.7425928,6.39369339 16.7425928,6.39369339 C16.7403299,6.73002196 17.0163995,7 17.3558293,7 Z M16.667844,0.136269856 C15.4008895,-0.15283787 14.0925029,0.0977221593 13.7261546,0.164109859 C13.6956256,0.168392937 13.6716385,0.191949863 13.6454708,0.19623294 C13.6345675,0.200516017 13.6236643,0.211223711 13.6236643,0.211223711 C13.2616773,0.31187603 13,0.633106837 13,1.01430073 C13,1.46830693 13.3794321,1.84307621 13.8548126,1.84307621 C13.8548126,1.84307621 14.3149286,1.78311312 14.6289414,1.6653285 C14.9385929,1.54326079 17.5706308,1.57538387 18.8746561,3.69764873 C19.5855462,5.24812276 19.1886689,6.28462749 19.1363335,6.45166751 C19.1363335,6.45166751 18.9662432,6.85641833 18.9662432,7.25260299 C18.9662432,7.71089227 19.3456753,8 19.8210558,8 C20.2157525,8 20.5472104,7.94646153 20.6431588,7.29971684 L20.6475201,7.29971684 C22.0562164,2.77250401 18.9378948,0.645956069 16.667844,0.136269856 Z" id="Shape"></path>
                            <path d="M7.99595142,14.9899616 C4.68016194,15.1461486 2,13.4614119 2,11.2164845 C2,8.96947471 4.68218623,7.16811836 7.99595142,7.0119314 C11.3137652,6.85574443 14,8.24476718 14,10.4855295 C14,12.7283744 11.3137652,14.8379397 7.99595142,14.9899616 Z M15.5982047,7.58721754 C14.778998,7.43122826 15.1791247,7.00485757 15.1791247,7.00485757 C15.1791247,7.00485757 15.979378,5.71742608 15.019074,4.78149042 C13.8313296,3.62301007 10.9377819,4.92708041 10.9377819,4.92708041 C9.83427464,5.25985754 10.1269989,4.77525085 10.2828377,3.94746776 C10.2828377,2.97201482 9.94167706,1.32476806 6.99758708,2.29606129 C4.05560303,3.2777538 1.53269903,6.70951788 1.53269903,6.70951788 C-0.221540563,8.98904117 0.0101117241,10.7527599 0.0101117241,10.7527599 C0.44814514,14.6462523 4.69369979,15.7152988 7.99579785,15.9690413 C11.4684762,16.2331832 16.160488,14.8022415 17.5798848,11.8613237 C19.0034934,8.91208646 16.4195174,7.74736653 15.5982047,7.58721754 Z" id="Shape"></path>
                            <path d="M7.74223097,10.8839956 C7.49692754,11.0578608 7.19789097,11.0352809 7.07173492,10.8230299 C6.9385702,10.6198108 6.98996711,10.2946602 7.23293432,10.125311 C7.51795355,9.92209191 7.81231767,9.98305764 7.94314617,10.1862767 C8.06930222,10.3894958 7.97818951,10.7033564 7.74223097,10.8839956 Z M6.00179105,12.9906334 C5.44684205,13.0642382 5,12.6962143 5,12.1620539 C5,11.6320995 5.39639214,11.0748062 5.94953936,11.0075104 C6.58556856,10.9381116 6.99997853,11.3587103 6.99997853,11.8949737 C7.00358209,12.4249281 6.55313648,12.9170286 6.00179105,12.9906334 Z M6.80801077,8.0346142 C3.64656979,8.45474932 4.01297466,11.8202527 4.01297466,11.8202527 C4.01297466,11.8202527 3.98036271,12.8860692 4.85896706,13.4278223 C6.70633821,14.5688209 8.61317822,13.8767035 9.57235328,12.4659341 C10.5372834,11.0573758 9.97328845,7.61890156 6.80801077,8.0346142 Z" id="Shape"></path>
                        </g>
                    </g>
                </g>
            </g>
        </g>
    </g>
</svg>