<?xml version="1.0" encoding="UTF-8"?>
<svg width="24px" height="24px" viewBox="0 0 24 24" version="1.1" xmlns="http://www.w3.org/2000/svg" xmlns:xlink="http://www.w3.org/1999/xlink">
    <!-- Generator: Sketch 52.4 (67378) - http://www.bohemiancoding.com/sketch -->
    <title>icon_recipes</title>
    <desc>Created with Sketch.</desc>
    <g id="分类" stroke="none" stroke-width="1" fill="none" fill-rule="evenodd">
        <g transform="translate(-16.000000, -93.000000)" id="Group-7">
            <g transform="translate(0.000000, 80.000000)">
                <g id="Group-8">
                    <g id="Group-2" transform="translate(16.000000, 13.000000)">
                        <rect id="Rectangle" fill="#D8D8D8" fill-rule="nonzero" opacity="0" x="0" y="0" width="24" height="24"></rect>
                        <g id="日期" transform="translate(3.000000, 2.000000)">
                            <path d="M16.3304256,2.52659981 C16.5606954,2.63146516 16.7674828,2.76567821 16.9456959,2.92994793 C17.3091862,3.29070758 17.5110407,3.78331909 17.5052141,4.2954105 L17.5052141,17.6633479 C17.5052141,17.932483 17.4568313,18.1832704 17.3600226,18.4142922 C17.2668344,18.6398999 17.1254194,18.8423903 16.9456959,19.0075624 C16.5899186,19.3650478 16.1065647,19.566348 15.602212,19.5670806 L2.21227449,19.5670806 C1.70779723,19.5658985 1.22438104,19.364681 0.868060115,19.0075624 C0.688337512,18.8425502 0.547139028,18.6400008 0.454485404,18.4142922 C0.355819575,18.1763438 0.306181157,17.9209308 0.308541863,17.6633479 L0.308541863,4.29614093 C0.308541863,4.02700585 0.360598565,3.77694892 0.465463921,3.54594865 C0.569598808,3.31494838 0.703811855,3.10887002 0.868081577,2.93067841 C1.0484646,2.76640868 1.25308202,2.63219564 1.48481276,2.52733028 C1.71581303,2.42248641 1.95854378,2.37113869 2.21227455,2.37113869 L3.1751409,2.37113869 L3.1751409,1.41854188 C3.1751409,0.892840616 3.60130598,0.466675539 4.12700724,0.466675539 L4.12700724,0.466675539 C4.65270851,0.466675539 5.07887359,0.892840616 5.07887359,1.41854188 L5.07887359,2.37040822 L12.7363434,2.37040822 L12.7363434,1.41854188 C12.7363434,0.892840616 13.1625085,0.466675539 13.6882098,0.466675539 L13.6882098,0.466675539 C14.213911,0.466675539 14.6400761,0.892840616 14.6400761,1.41854188 L14.6400761,2.37040822 L15.602212,2.37040822 C15.8566946,2.37040822 16.0986949,2.42246492 16.3304256,2.52659981 Z" id="Shape" fill="#ECC5C5" fill-rule="nonzero"></path>
                            <path d="M13.5392025,7.06574218 L13.5392025,7.06574218 C13.5392025,7.61802693 13.0914873,8.06574218 12.5392025,8.06574218 L5,8.06574218 C4.44771525,8.06574218 4,7.61802693 4,7.06574218 L4,7.06574218 C4,6.51345743 4.44771525,6.06574218 5,6.06574218 L12.5392025,6.06574218 C13.0914873,6.06574218 13.5392025,6.51345743 13.5392025,7.06574218 Z" id="Path" fill="#FFFFFF" opacity="0.389999986"></path>
                            <path d="M9.67335542,11.8944771 L5,11.8944771 C4.44771525,11.8944771 4,11.4467619 4,10.8944771 L4,10.8944771 C4,10.3421924 4.44771525,9.89447711 5,9.89447711 L9.67335542,9.89447711 C10.2256402,9.89447711 10.6733554,10.3421924 10.6733554,10.8944771 L10.6733554,10.8944771 C10.6733554,11.4467619 10.2256402,11.8944771 9.67335542,11.8944771 Z" id="Path" fill="#FFFFFF" opacity="0.389999986"></path>
                            <path d="M6.67335542,16 L5,16 C4.44771525,16 4,15.5522847 4,15 L4,15 C4,14.4477153 4.44771525,14 5,14 L6.67335542,14 C7.22564017,14 7.67335542,14.4477153 7.67335542,15 L7.67335542,15 C7.67335542,15.5522847 7.22564017,16 6.67335542,16 Z" id="Path-Copy" fill="#FFFFFF" opacity="0.389999986"></path>
                        </g>
                    </g>
                </g>
            </g>
        </g>
    </g>
</svg>