<?xml version="1.0" encoding="UTF-8"?>
<svg width="44px" height="44px" viewBox="0 0 44 44" version="1.1" xmlns="http://www.w3.org/2000/svg" xmlns:xlink="http://www.w3.org/1999/xlink">
    <!-- Generator: Sketch 52.4 (67378) - http://www.bohemiancoding.com/sketch -->
    <title>icon_share_weibo</title>
    <desc>Created with Sketch.</desc>
    <defs>
        <linearGradient x1="50%" y1="0%" x2="50%" y2="100%" id="linearGradient-1">
            <stop stop-color="#EC5654" stop-opacity="0.414402174" offset="0%"></stop>
            <stop stop-color="#D52B2A" stop-opacity="0.481884058" offset="96.6830744%"></stop>
        </linearGradient>
    </defs>
    <g id="首页" stroke="none" stroke-width="1" fill="none" fill-rule="evenodd">
        <g id="首页-辅食详情-分享" transform="translate(-213.000000, -509.000000)">
            <g id="Group-13" transform="translate(0.000000, 428.000000)">
                <g id="Group-12" transform="translate(0.000000, 57.000000)">
                    <g id="Group-9-Copy-2" transform="translate(190.000000, 16.000000)">
                        <g id="Group-8" transform="translate(23.000000, 8.000000)">
                            <rect id="Rectangle" fill="url(#linearGradient-1)" fill-rule="nonzero" opacity="0.100000001" x="0" y="0" width="44" height="44" rx="22"></rect>
                            <g id="微博" transform="translate(9.000000, 11.000000)">
                                <g id="Group" transform="translate(0.634766, 0.572817)">
                                    <path d="M1.80273647,14.2281292 C1.80273647,17.2400374 5.54024082,19.5826327 10.2527463,19.5826327 C14.9652518,19.5826327 18.7027561,17.2400374 18.7027561,14.2281292 C18.7027561,11.2162209 14.9652518,8.87362557 10.2527463,8.87362557 C5.54024082,8.87362557 1.80273647,11.2162209 1.80273647,14.2281292" id="Path" fill="#FFFFFF"></path>
                                    <path d="M18.5402559,10.0449232 C18.2152556,9.87759499 17.8902552,9.87759499 18.0527554,9.37561028 C18.3777558,8.37164086 18.5402559,7.53499967 18.0527554,6.86568673 C17.2402544,5.69438907 14.9652518,5.69438907 12.527749,6.86568673 C12.527749,6.86568673 11.715248,7.2003432 11.8777482,6.53103025 C12.527749,5.19240436 12.3652488,4.0211067 11.8777482,3.51912199 C10.5777467,2.18049609 6.84024233,3.51912199 3.75273874,6.86568673 C1.47773609,9.20828204 0.0152343927,11.8855338 0.0152343927,14.0608009 C0.0152343927,18.2440068 5.21524044,20.9212586 10.4152465,20.9212586 C17.2402544,20.9212586 21.6277595,16.9053809 21.6277595,13.7261444 C21.6277595,11.5508774 20.0027577,10.3795797 18.5402559,10.0449232 Z M10.4152465,19.2479763 C6.35274177,19.749961 2.77773761,17.7420221 2.45273723,14.8974421 C2.12773685,12.2201903 5.21524044,9.54293852 9.44024536,9.20828204 C13.5027501,8.70629733 17.0777542,10.7142362 17.4027546,13.5588162 C17.5652548,16.236068 14.4777512,18.7459916 10.4152465,19.2479763 Z" id="Shape" fill="#F95452" fill-rule="nonzero"></path>
                                    <path d="M23.0902612,2.18049609 C21.4652594,0.339885481 19.0277565,-0.329427467 16.7527539,0.172557244 C16.2652533,0.339885481 15.9402529,0.841870193 15.9402529,1.3438549 C16.2652533,1.84583961 16.7527539,2.18049609 17.2402544,2.01316785 C18.8652563,1.67851138 20.4902582,2.18049609 21.6277595,3.51912199 C22.7652609,4.85774788 23.0902612,6.69835849 22.6027607,8.20431262 C22.4402605,8.70629733 22.7652609,9.20828204 23.2527614,9.37561028 C23.740262,9.54293852 24.2277626,9.20828204 24.3902628,8.70629733 C25.2027637,6.69835849 24.7152631,4.18843493 23.0902612,2.18049609" id="Path" fill="#FF7612"></path>
                                    <path d="M20.6527584,4.52309141 C19.8402575,3.68645022 18.7027561,3.35179375 17.5652548,3.51912199 C17.0777542,3.68645022 16.9152541,4.0211067 16.9152541,4.52309141 C17.0777542,5.02507612 17.4027546,5.19240436 17.8902552,5.19240436 C18.3777558,5.02507612 19.0277565,5.19240436 19.3527569,5.69438907 C19.6777573,6.19637378 19.8402575,6.69835849 19.6777573,7.2003432 C19.5152571,7.70232791 19.8402575,8.03698439 20.1652578,8.20431262 C20.6527584,8.37164086 20.9777588,8.03698439 21.140259,7.70232791 C21.6277595,6.69835849 21.4652594,5.52706083 20.6527584,4.52309141" id="Path" fill="#FF7612"></path>
                                    <path d="M10.7402469,11.2162209 C8.7902446,10.7142362 6.67774215,11.7182056 5.70274101,13.5588162 C4.89024007,15.3994268 5.70274101,17.4073657 7.65274328,18.0766786 C9.76524574,18.7459916 12.2027486,17.7420221 13.0152495,15.7340833 C13.8277505,13.7261444 12.8527493,11.8855338 10.7402469,11.2162209 Z M9.27774517,15.9014115 C8.95274479,16.5707245 7.97774366,16.9053809 7.3277429,16.5707245 C6.67774215,16.236068 6.51524196,15.5667551 6.84024233,14.8974421 C7.16524271,14.2281292 7.97774366,14.0608009 8.62774441,14.2281292 C9.44024536,14.5627856 9.60274555,15.2320986 9.27774517,15.9014115 Z M10.5777467,14.2281292 C10.4152465,14.5627856 10.0902461,14.5627856 9.92774593,14.5627856 C9.60274555,14.3954574 9.60274555,14.2281292 9.76524574,13.8934727 C9.92774593,13.7261444 10.2527463,13.5588162 10.4152465,13.5588162 C10.5777467,13.7261444 10.7402469,13.8934727 10.5777467,14.2281292 Z" id="Shape" fill="#040000" fill-rule="nonzero"></path>
                                </g>
                            </g>
                        </g>
                    </g>
                </g>
            </g>
        </g>
    </g>
</svg>