<?xml version="1.0" encoding="UTF-8"?>
<svg width="24px" height="24px" viewBox="0 0 24 24" version="1.1" xmlns="http://www.w3.org/2000/svg" xmlns:xlink="http://www.w3.org/1999/xlink">
    <!-- Generator: Sketch 52.4 (67378) - http://www.bohemiancoding.com/sketch -->
    <title>tabbar_notselect_classify</title>
    <desc>Created with Sketch.</desc>
    <g id="Page-1" stroke="none" stroke-width="1" fill="none" fill-rule="evenodd">
        <g id="收藏-食谱-无数据时" transform="translate(-51.000000, -622.000000)">
            <g id="tabbar-1" transform="translate(0.000000, 616.000000)">
                <g id="Group-2">
                    <g id="Group-5" transform="translate(51.000000, 6.000000)">
                        <g id="Group">
                            <rect id="Rectangle-2" fill-opacity="0" fill="#D8D8D8" x="0" y="0" width="24" height="24"></rect>
                            <g id="Group-Copy" transform="translate(3.000000, 5.000000)" fill="#000000">
                                <path d="M0.5,0 L17.5,0 C17.7761424,-5.07265313e-17 18,0.223857625 18,0.5 C18,0.776142375 17.7761424,1 17.5,1 L0.5,1 C0.223857625,1 3.38176876e-17,0.776142375 0,0.5 C-3.38176876e-17,0.223857625 0.223857625,5.07265313e-17 0.5,0 Z M0.5,7 L17.5,7 C17.7761424,7 18,7.22385763 18,7.5 C18,7.77614237 17.7761424,8 17.5,8 L0.5,8 C0.223857625,8 3.38176876e-17,7.77614237 0,7.5 C-3.38176876e-17,7.22385763 0.223857625,7 0.5,7 Z M0.5,14 L17.5,14 C17.7761424,14 18,14.2238576 18,14.5 C18,14.7761424 17.7761424,15 17.5,15 L0.5,15 C0.223857625,15 3.38176876e-17,14.7761424 0,14.5 C-3.38176876e-17,14.2238576 0.223857625,14 0.5,14 Z" id="Combined-Shape"></path>
                            </g>
                        </g>
                    </g>
                </g>
            </g>
        </g>
    </g>
</svg>