<?xml version="1.0" encoding="UTF-8"?>
<svg width="44px" height="44px" viewBox="0 0 44 44" version="1.1" xmlns="http://www.w3.org/2000/svg" xmlns:xlink="http://www.w3.org/1999/xlink">
    <!-- Generator: Sketch 52.4 (67378) - http://www.bohemiancoding.com/sketch -->
    <title>icon_share_wechat</title>
    <desc>Created with Sketch.</desc>
    <defs>
        <linearGradient x1="50%" y1="0%" x2="50%" y2="100%" id="linearGradient-1">
            <stop stop-color="#57DB01" offset="0%"></stop>
            <stop stop-color="#2DC100" offset="100%"></stop>
        </linearGradient>
    </defs>
    <g id="首页" stroke="none" stroke-width="1" fill="none" fill-rule="evenodd">
        <g id="首页-辅食详情-分享" transform="translate(-23.000000, -509.000000)" fill-rule="nonzero">
            <g id="Group-13" transform="translate(0.000000, 428.000000)">
                <g id="Group-12" transform="translate(0.000000, 57.000000)">
                    <g id="Group-9" transform="translate(0.000000, 16.000000)">
                        <g id="Group-8" transform="translate(17.000000, 8.000000)">
                            <rect id="Rectangle" fill="url(#linearGradient-1)" opacity="0.100000001" x="6" y="0" width="44" height="44" rx="22"></rect>
                            <g id="Group" transform="translate(15.000000, 11.000000)" fill="#2DC100">
                                <path d="M17.4587702,7.27403151 C15.1271753,7.39841004 13.0996726,8.11981521 11.4535649,9.74979806 C9.79044208,11.3966163 9.03125424,13.4144415 9.23875357,15.9160416 C8.32742482,15.800758 7.49733268,15.6739606 6.66254834,15.6021684 C6.37423896,15.5773992 6.03208782,15.612618 5.78790404,15.7532513 C4.97729162,16.2201425 4.20018811,16.7473121 3.2790958,17.3349051 C3.44810965,16.5547213 3.55749944,15.8714859 3.75115917,15.2143745 C3.8935839,14.7313736 3.82760878,14.4625882 3.39170851,14.147941 C0.592742452,12.1309866 -0.587084184,9.11237622 0.295854409,6.00460611 C1.11277049,3.1296285 3.1188028,1.3860553 5.84454216,0.477138973 C9.56497969,-0.763308307 13.7460582,0.502005004 16.0083602,3.5169387 C16.8253237,4.60601281 17.3263934,5.82836691 17.4587702,7.27403151 Z M6.72785992,6.30565925 C6.74928288,5.73727209 6.26679241,5.22519633 5.69363355,5.2080707 C5.10682466,5.19050967 4.62414462,5.64820913 4.60698729,6.23851129 C4.58968778,6.83669898 5.037911,7.31607155 5.62898552,7.33135884 C6.21498867,7.34650099 6.70619999,6.88817263 6.72785992,6.30565925 Z M12.3265978,5.20768368 C11.7513535,5.21847186 11.2652135,5.71859838 11.2754037,6.28925928 C11.2859255,6.88077088 11.7627759,7.34354997 12.3543244,7.33629334 C12.9474369,7.32898834 13.3972242,6.8613715 13.3915841,6.25737851 C13.3867023,5.66441559 12.9119848,5.19679875 12.3265978,5.20768368 Z" id="Shape"></path>
                                <path d="M22.6971568,22.1110214 C21.9588706,21.7754751 21.2815829,21.2720105 20.5605962,21.1951387 C19.842311,21.1185571 19.0871992,21.5415699 18.3357369,21.6199898 C16.0467035,21.859023 13.9959295,21.2078136 12.3049852,19.6117434 C9.08893507,16.5754752 9.54848591,11.9201091 13.2692552,9.43195793 C16.5761633,7.22062276 21.4259509,7.95779899 23.757451,11.0261414 C25.792063,13.7035454 25.5529506,17.257743 23.0691674,19.5070061 C22.3503135,20.1579736 22.0917213,20.693706 22.5528836,21.5518259 C22.6380067,21.7102622 22.6476755,21.9108837 22.6971568,22.1110214 Z M14.2929597,13.8055735 C14.7630798,13.8060573 15.1500201,13.4305512 15.1677936,12.956742 C15.1866098,12.455019 14.7912804,12.03428 14.2991686,12.0321998 C13.8119385,12.0298776 13.4036226,12.4566639 13.4206378,12.9507916 C13.4366102,13.4230527 13.8263469,13.804993 14.2929597,13.8055735 Z M19.7106451,12.0341349 C19.254649,12.0308936 18.8670925,12.4119631 18.8485133,12.8822891 C18.8287492,13.3852698 19.2118031,13.7982685 19.6993649,13.7995263 C20.1710491,13.8011711 20.5437706,13.4370821 20.5609753,12.9579998 C20.5792227,12.453858 20.1960741,12.0375697 19.7106451,12.0341349 Z" id="Shape"></path>
                            </g>
                        </g>
                    </g>
                </g>
            </g>
        </g>
    </g>
</svg>