<?xml version="1.0" encoding="UTF-8"?>
<svg width="82px" height="88px" viewBox="0 0 82 88" version="1.1" xmlns="http://www.w3.org/2000/svg" xmlns:xlink="http://www.w3.org/1999/xlink">
    <!-- Generator: Sketch 52.4 (67378) - http://www.bohemiancoding.com/sketch -->
    <title>img_about_logo</title>
    <desc>Created with Sketch.</desc>
    <defs>
        <path d="M19.1436762,-7.7342743e-16 L44.8563238,7.7342743e-16 C51.5129971,-4.4938361e-16 53.9268677,0.693097897 56.3604479,1.99459085 C58.7940282,3.29608381 60.7039162,5.20597183 62.0054091,7.63955208 C63.3069021,10.0731323 64,12.4870029 64,19.1436762 L64,44.8563238 C64,51.5129971 63.3069021,53.9268677 62.0054091,56.3604479 C60.7039162,58.7940282 58.7940282,60.7039162 56.3604479,62.0054091 C53.9268677,63.3069021 51.5129971,64 44.8563238,64 L19.1436762,64 C12.4870029,64 10.0731323,63.3069021 7.63955208,62.0054091 C5.20597183,60.7039162 3.29608381,58.7940282 1.99459085,56.3604479 C0.693097897,53.9268677 2.99589073e-16,51.5129971 -5.15618287e-16,44.8563238 L5.15618287e-16,19.1436762 C-2.99589073e-16,12.4870029 0.693097897,10.0731323 1.99459085,7.63955208 C3.29608381,5.20597183 5.20597183,3.29608381 7.63955208,1.99459085 C10.0731323,0.693097897 12.4870029,4.4938361e-16 19.1436762,-7.7342743e-16 Z" id="path-1"></path>
        <filter x="-32.9%" y="-18.8%" width="165.8%" height="175.1%" filterUnits="objectBoundingBox" id="filter-3">
            <feMorphology radius="7" operator="erode" in="SourceAlpha" result="shadowSpreadOuter1"></feMorphology>
            <feOffset dx="0" dy="15" in="shadowSpreadOuter1" result="shadowOffsetOuter1"></feOffset>
            <feGaussianBlur stdDeviation="11.5" in="shadowOffsetOuter1" result="shadowBlurOuter1"></feGaussianBlur>
            <feComposite in="shadowBlurOuter1" in2="SourceAlpha" operator="out" result="shadowBlurOuter1"></feComposite>
            <feColorMatrix values="0 0 0 0 1   0 0 0 0 0.384313725   0 0 0 0 0.568627451  0 0 0 1 0" type="matrix" in="shadowBlurOuter1"></feColorMatrix>
        </filter>
        <linearGradient x1="50%" y1="0%" x2="50%" y2="97.2791727%" id="linearGradient-4">
            <stop stop-color="#FF4B82" offset="0%"></stop>
            <stop stop-color="#FF306F" offset="100%"></stop>
        </linearGradient>
        <path d="M53.801632,7.24308207 C53.801632,7.24308207 52.9556848,3.73667411 58.327449,0.982653282 C63.6992133,-1.77136754 69.4857143,1.71478992 69.4857143,7.24308207 C69.4857143,12.7713742 68.05488,18.4936003 64.8120827,19.4163393 C61.5692855,20.3390782 53.4350549,11.3599173 53.801632,7.24308207 Z" id="path-5"></path>
        <filter x="-3.2%" y="-2.6%" width="106.4%" height="105.1%" filterUnits="objectBoundingBox" id="filter-6">
            <feOffset dx="0" dy="-1" in="SourceAlpha" result="shadowOffsetInner1"></feOffset>
            <feComposite in="shadowOffsetInner1" in2="SourceAlpha" operator="arithmetic" k2="-1" k3="1" result="shadowInnerInner1"></feComposite>
            <feColorMatrix values="0 0 0 0 0.956951531   0 0 0 0 0.334639492   0 0 0 0 0  0 0 0 0.155174366 0" type="matrix" in="shadowInnerInner1" result="shadowMatrixInner1"></feColorMatrix>
            <feOffset dx="0" dy="1" in="SourceAlpha" result="shadowOffsetInner2"></feOffset>
            <feComposite in="shadowOffsetInner2" in2="SourceAlpha" operator="arithmetic" k2="-1" k3="1" result="shadowInnerInner2"></feComposite>
            <feColorMatrix values="0 0 0 0 1   0 0 0 0 1   0 0 0 0 1  0 0 0 0.0840126812 0" type="matrix" in="shadowInnerInner2" result="shadowMatrixInner2"></feColorMatrix>
            <feMerge>
                <feMergeNode in="shadowMatrixInner1"></feMergeNode>
                <feMergeNode in="shadowMatrixInner2"></feMergeNode>
            </feMerge>
        </filter>
        <path d="M5.38186556,7.22305477 C5.38186556,7.22305477 4.53591845,3.71664681 9.90768265,0.962625984 C15.2794469,-1.79139484 21.0659479,1.69476262 21.0659479,7.22305477 C21.0659479,12.7513469 19.6351136,18.473573 16.3923164,19.396312 C13.1495191,20.3190509 5.01528848,11.33989 5.38186556,7.22305477 Z" id="path-7"></path>
        <filter x="-3.2%" y="-2.6%" width="106.4%" height="105.1%" filterUnits="objectBoundingBox" id="filter-8">
            <feOffset dx="0" dy="-1" in="SourceAlpha" result="shadowOffsetInner1"></feOffset>
            <feComposite in="shadowOffsetInner1" in2="SourceAlpha" operator="arithmetic" k2="-1" k3="1" result="shadowInnerInner1"></feComposite>
            <feColorMatrix values="0 0 0 0 0.956951531   0 0 0 0 0.334639492   0 0 0 0 0  0 0 0 0.155174366 0" type="matrix" in="shadowInnerInner1" result="shadowMatrixInner1"></feColorMatrix>
            <feOffset dx="0" dy="1" in="SourceAlpha" result="shadowOffsetInner2"></feOffset>
            <feComposite in="shadowOffsetInner2" in2="SourceAlpha" operator="arithmetic" k2="-1" k3="1" result="shadowInnerInner2"></feComposite>
            <feColorMatrix values="0 0 0 0 1   0 0 0 0 1   0 0 0 0 1  0 0 0 0.0840126812 0" type="matrix" in="shadowInnerInner2" result="shadowMatrixInner2"></feColorMatrix>
            <feMerge>
                <feMergeNode in="shadowMatrixInner1"></feMergeNode>
                <feMergeNode in="shadowMatrixInner2"></feMergeNode>
            </feMerge>
        </filter>
        <linearGradient x1="50%" y1="0%" x2="50%" y2="37.7730426%" id="linearGradient-9">
            <stop stop-color="#FF4980" offset="0%"></stop>
            <stop stop-color="#FF004D" offset="96.4595376%"></stop>
        </linearGradient>
        <path d="M37.2735939,1.56402645 C22.6438047,1.39374652 10.9965135,8.36103357 5.56864962,20.0677786 C0.140785765,31.7745237 -1.88052812,38.9688506 2.04901915,48.9018464 C5.97856642,58.8348422 19.2513897,64 37.9520769,64 C56.6527641,64 71.8196858,55.9684634 74.2650515,45.098928 C76.7104172,34.2293926 72.6395194,22.9199674 64.6390742,13.5403814 C56.638629,4.16079535 49.3308019,1.70592639 37.2735939,1.56402645 Z" id="path-10"></path>
        <filter x="-0.7%" y="-0.8%" width="101.3%" height="101.6%" filterUnits="objectBoundingBox" id="filter-11">
            <feOffset dx="0" dy="-1" in="SourceAlpha" result="shadowOffsetInner1"></feOffset>
            <feComposite in="shadowOffsetInner1" in2="SourceAlpha" operator="arithmetic" k2="-1" k3="1" result="shadowInnerInner1"></feComposite>
            <feColorMatrix values="0 0 0 0 0.956951531   0 0 0 0 0.334639492   0 0 0 0 0  0 0 0 0.155174366 0" type="matrix" in="shadowInnerInner1" result="shadowMatrixInner1"></feColorMatrix>
            <feOffset dx="0" dy="1" in="SourceAlpha" result="shadowOffsetInner2"></feOffset>
            <feComposite in="shadowOffsetInner2" in2="SourceAlpha" operator="arithmetic" k2="-1" k3="1" result="shadowInnerInner2"></feComposite>
            <feColorMatrix values="0 0 0 0 1   0 0 0 0 1   0 0 0 0 1  0 0 0 0.0840126812 0" type="matrix" in="shadowInnerInner2" result="shadowMatrixInner2"></feColorMatrix>
            <feMerge>
                <feMergeNode in="shadowMatrixInner1"></feMergeNode>
                <feMergeNode in="shadowMatrixInner2"></feMergeNode>
            </feMerge>
        </filter>
        <linearGradient x1="50%" y1="0%" x2="50%" y2="100%" id="linearGradient-12">
            <stop stop-color="#FFEBC1" offset="0%"></stop>
            <stop stop-color="#F68D53" offset="100%"></stop>
        </linearGradient>
        <path d="M35.9436501,18.2357344 C27.8707312,18.6899068 19.2181457,34.4582058 25.8206905,41.7391576 C32.4090972,49.0059164 47.5511218,47.0472978 50.9867073,41.3701425 C54.4222927,35.6929871 50.8877398,17.398354 35.9436501,18.2357344 Z" id="path-13"></path>
        <filter x="-1.7%" y="-1.8%" width="103.5%" height="103.5%" filterUnits="objectBoundingBox" id="filter-14">
            <feOffset dx="0" dy="-1" in="SourceAlpha" result="shadowOffsetInner1"></feOffset>
            <feComposite in="shadowOffsetInner1" in2="SourceAlpha" operator="arithmetic" k2="-1" k3="1" result="shadowInnerInner1"></feComposite>
            <feColorMatrix values="0 0 0 0 0.956951531   0 0 0 0 0.334639492   0 0 0 0 0  0 0 0 0.155174366 0" type="matrix" in="shadowInnerInner1" result="shadowMatrixInner1"></feColorMatrix>
            <feOffset dx="0" dy="1" in="SourceAlpha" result="shadowOffsetInner2"></feOffset>
            <feComposite in="shadowOffsetInner2" in2="SourceAlpha" operator="arithmetic" k2="-1" k3="1" result="shadowInnerInner2"></feComposite>
            <feColorMatrix values="0 0 0 0 1   0 0 0 0 1   0 0 0 0 1  0 0 0 0.0840126812 0" type="matrix" in="shadowInnerInner2" result="shadowMatrixInner2"></feColorMatrix>
            <feMerge>
                <feMergeNode in="shadowMatrixInner1"></feMergeNode>
                <feMergeNode in="shadowMatrixInner2"></feMergeNode>
            </feMerge>
        </filter>
        <filter x="-65.2%" y="-103.1%" width="230.4%" height="306.2%" filterUnits="objectBoundingBox" id="filter-15">
            <feGaussianBlur stdDeviation="1.41455526" in="SourceGraphic"></feGaussianBlur>
        </filter>
        <filter x="-65.2%" y="-103.1%" width="230.4%" height="306.2%" filterUnits="objectBoundingBox" id="filter-16">
            <feGaussianBlur stdDeviation="1.41455526" in="SourceGraphic"></feGaussianBlur>
        </filter>
    </defs>
    <g id="1.1.0" stroke="none" stroke-width="1" fill="none" fill-rule="evenodd">
        <g id="我的-关于萌宝宝辅食" transform="translate(-147.000000, -103.000000)">
            <g id="Group-4" transform="translate(0.000000, 103.000000)">
                <g id="Group-3" transform="translate(147.000000, 0.000000)">
                    <g id="Group-5" transform="translate(9.000000, 0.000000)">
                        <mask id="mask-2" fill="white">
                            <use xlink:href="#path-1"></use>
                        </mask>
                        <g id="Mask" fill-rule="nonzero">
                            <use fill="black" fill-opacity="1" filter="url(#filter-3)" xlink:href="#path-1"></use>
                            <path stroke="#E6E6E6" stroke-width="0.533333333" d="M19.1436762,0.266666667 C13.1149026,0.266666667 10.4870825,0.774122145 7.76531178,2.22974104 C5.37820312,3.50638072 3.50638072,5.37820312 2.22974104,7.76531178 C0.774122145,10.4870825 0.266666667,13.1149026 0.266666667,19.1436762 L0.266666667,44.8563238 C0.266666667,50.8850974 0.774122145,53.5129175 2.22974104,56.2346882 C3.50638072,58.6217969 5.37820312,60.4936193 7.76531178,61.770259 C10.4870825,63.2258779 13.1149026,63.7333333 19.1436762,63.7333333 L44.8563238,63.7333333 C50.8850974,63.7333333 53.5129175,63.2258779 56.2346882,61.770259 C58.6217969,60.4936193 60.4936193,58.6217969 61.770259,56.2346882 C63.2258779,53.5129175 63.7333333,50.8850974 63.7333333,44.8563238 L63.7333333,19.1436762 C63.7333333,13.1149026 63.2258779,10.4870825 61.770259,7.76531178 C60.4936193,5.37820312 58.6217969,3.50638072 56.2346882,2.22974104 C53.5129175,0.774122145 50.8850974,0.266666667 44.8563238,0.266666667 L19.1436762,0.266666667 Z" stroke-linejoin="square" fill="#FFFFFF" fill-rule="evenodd"></path>
                        </g>
                        <g id="Group-2" mask="url(#mask-2)">
                            <g transform="translate(-5.485714, 19.200000)">
                                <path d="M17.7186385,4.73192546 L17.7186385,4.73192546 C19.2861248,4.68319661 20.596326,5.91439274 20.6450548,7.48187898 C20.6457751,7.50504718 20.6462116,7.52822332 20.6463643,7.5514022 L20.6681962,10.8650176 C20.6786829,12.4566641 19.4001876,13.7571567 17.8085938,13.7738212 L17.8085938,13.7738212 C16.2174635,13.790481 14.9128333,12.5165668 14.8915861,10.9254911 L14.8489409,7.73204384 C14.8273707,6.11678628 16.104017,4.78211961 17.7186385,4.73192546 Z M17.6623768,11.8275757 L17.8985491,11.8147438 C18.5166952,11.7811583 18.9963458,11.2625756 18.9816861,10.6436914 L18.9157866,7.86164559 C18.9008922,7.23285688 18.3790839,6.7351972 17.7502952,6.75009159 C17.739738,6.75034166 17.7291847,6.75073857 17.7186385,6.75128218 L17.272233,6.77429278 C16.8717515,6.79493616 16.5625962,7.13424401 16.5792051,7.53491315 L16.5792051,7.53491315 C16.5949176,7.91395753 16.9149313,8.20849619 17.2939757,8.19278367 C17.3059931,8.19228551 17.3179953,8.19147181 17.3299699,8.1903434 L17.5687131,8.16784586 C18.0658592,8.12099816 18.5068533,8.48603717 18.553701,8.98318329 C18.5555056,9.00233357 18.5566987,9.02153655 18.5572783,9.04076293 L18.5601808,9.13704002 C18.5756691,9.65078777 18.1723796,10.0801269 17.6586684,10.0967836 L17.6032353,10.098581 C17.1213871,10.1142046 16.7434373,10.5174852 16.7590609,10.9993335 C16.7590787,10.9998801 16.7590969,11.0004266 16.7591157,11.0009732 L16.7591157,11.0009732 C16.7753482,11.4741447 17.1720886,11.8445668 17.6452601,11.8283342 C17.650968,11.8281384 17.6566739,11.8278855 17.6623768,11.8275757 Z M21.4558086,13.5356075 L21.38568,7.57920104 C21.3641287,5.74872487 22.8152788,4.23957575 24.6451944,4.18941171 L24.6451944,4.18941171 C26.4072893,4.14110686 27.8749083,5.53040819 27.9232131,7.29250309 C27.9241818,7.3278386 27.9245634,7.36318777 27.9243577,7.39853595 L27.8891693,13.4467741 C27.8860516,13.9826384 27.4596705,14.4200695 26.9240613,14.4368936 L26.9240613,14.4368936 C26.4179795,14.4527902 25.9948325,14.0554166 25.9789359,13.5493348 C25.9784943,13.5352744 25.9783763,13.5212057 25.9785821,13.5071398 L26.0621076,7.79812371 C26.0742834,6.96590321 25.4095058,6.28138478 24.5772853,6.26920901 C24.5699371,6.2691015 24.5625882,6.26904774 24.5552391,6.26904774 L23.5994374,6.26904774 C23.2988856,6.26904774 23.0552401,6.51269317 23.0552401,6.81324504 C23.0552401,6.82273528 23.0554884,6.83222389 23.0559846,6.84170114 L23.0559846,6.84170114 C23.0725551,7.15816308 23.3421888,7.40147755 23.6586848,7.38557118 L24.5196635,7.34230034 C25.0545262,7.31541936 25.5115118,7.72375934 25.5447471,8.25826481 L25.5447471,8.25826481 C25.5774364,8.78399012 25.1777518,9.23667462 24.6520265,9.26936395 C24.6478677,9.26962255 24.6437071,9.26985388 24.6395453,9.27005795 L23.7186897,9.31520928 C23.4034175,9.33066768 23.1603705,9.59877779 23.1758289,9.91404996 C23.1758599,9.91468193 23.1758919,9.91531384 23.175925,9.91594571 L23.175925,9.91594571 C23.1920788,10.2244496 23.4552658,10.4614462 23.7637697,10.4452924 C23.7683972,10.4450501 23.7730215,10.4447503 23.7776415,10.4443931 L24.5826837,10.3821475 C25.0900769,10.3429161 25.5332037,10.7224362 25.5724351,11.2298294 C25.5735264,11.2439434 25.5742923,11.2580807 25.5747322,11.2722301 L25.5747322,11.2722301 C25.5912048,11.8020694 25.1750388,12.2449427 24.6451995,12.2614153 C24.6435007,12.2614681 24.6418018,12.2615164 24.6401027,12.2615602 L24.2907267,12.2705647 C23.7266888,12.2851018 23.2812303,12.7541294 23.2957674,13.3181674 C23.295798,13.3193538 23.2958306,13.3205401 23.2958653,13.3217265 L23.2986058,13.4153829 C23.3138066,13.9348722 22.9149349,14.373122 22.3963126,14.4067539 L22.3963126,14.4067539 C21.9094479,14.4383265 21.4891715,14.0692393 21.457599,13.5823746 C21.4565893,13.5668041 21.4559923,13.5512096 21.4558086,13.5356075 Z M17.4487727,3.55647901 L17.4487727,3.55647901 C17.4487727,3.39713797 17.3196013,3.26796654 17.1602603,3.26796654 C17.1560599,3.26796654 17.15186,3.26805827 17.1476636,3.26824167 L15.7757917,3.32819573 C15.1741894,3.35448718 14.6634062,2.8918725 14.6301742,2.2906136 L14.6301742,2.2906136 C14.5988337,1.72357548 15.0331023,1.2384937 15.6001405,1.20715313 C15.6190382,1.20610865 15.6379611,1.2055861 15.6568876,1.2055861 L16.8465979,1.2055861 C17.1129287,1.2055861 17.3288324,0.989682391 17.3288324,0.723351663 L17.3288324,0.723351663 C17.3288324,0.457020935 17.5447361,0.241117221 17.8110668,0.241117221 L19.0055244,0.241117221 C19.2718552,0.241117221 19.4877589,0.457020935 19.4877589,0.723351663 L19.4877589,0.723351663 C19.4877589,0.985774668 19.7004948,1.19851055 19.9629178,1.19851055 C19.9652588,1.19851055 19.9675998,1.19849325 19.9699406,1.19845864 L23.0835494,1.15243426 C23.3509961,1.14848094 23.5657312,0.930548305 23.5657312,0.663072357 L23.5657312,0.663072357 C23.5657312,0.396741629 23.7816349,0.180837916 24.0479656,0.180837916 L25.182453,0.180837916 C25.4487838,0.180837916 25.6646875,0.396741629 25.6646875,0.663072357 L25.6646875,0.663072357 C25.6646875,0.922953755 25.875363,1.13362925 26.1352444,1.13362925 C26.139089,1.13362925 26.1429335,1.13358213 26.1467771,1.13348791 L27.3077326,1.10502596 C27.7645779,1.09382595 28.1498492,1.44305141 28.1834351,1.89879811 L28.1834351,1.89879811 C28.2156115,2.33541914 27.8877444,2.71545458 27.4511233,2.74763102 C27.4435028,2.74819261 27.4358745,2.74864399 27.4282409,2.74898501 L25.9073022,2.81693073 C25.7000218,2.82619067 25.5319051,2.98802551 25.514762,3.19480318 L25.514762,3.19480318 C25.4978154,3.39921096 25.3269693,3.55647901 25.1218603,3.55647901 L23.8671277,3.55647901 C23.700671,3.55647901 23.5657312,3.42153919 23.5657312,3.25508248 L23.5657312,3.25508248 C23.5657312,3.09574145 23.4365597,2.96657002 23.2772187,2.96657002 C23.2730183,2.96657002 23.2688184,2.96666175 23.264622,2.96684514 L19.7590087,3.12004877 C19.5737872,3.12814339 19.4277887,3.28066173 19.4277887,3.46606005 L19.4277887,3.46606005 C19.4277887,3.65077286 19.2810334,3.80206628 19.0964062,3.80768988 L17.7500295,3.84869948 C17.5886406,3.85361527 17.453824,3.72676873 17.4489083,3.56537982 C17.4488179,3.56241374 17.4487727,3.55944646 17.4487727,3.55647901 Z M30.5039272,3.65073801 L30.492287,2.98382561 C30.4757077,2.03393196 31.2303098,1.24944059 32.180131,1.22912746 L35.5248339,1.15759674 C35.8517482,1.15060526 36.1208773,0.89842334 36.1490866,0.5726534 L36.1490866,0.5726534 C36.1771392,0.248694113 36.4482991,-3.4556716e-14 36.7734707,-3.51940699e-14 L37.9549644,-3.30846461e-14 C38.2597756,-3.36820927e-14 38.5114698,0.238166978 38.5282912,0.542513747 L38.5282912,0.542513747 C38.5450131,0.845059212 38.7985559,1.07988881 39.1014938,1.0734101 L42.5069737,1.00057959 C43.3879002,0.981739859 44.1173048,1.68059921 44.1361445,2.56152564 C44.1367915,2.59178019 44.1365776,2.62204704 44.1355031,2.65228943 L44.1138782,3.26090705 C44.0926537,3.85825695 43.5935636,4.32665293 42.9960697,4.30997032 L42.6121366,4.29925054 C42.2498021,4.28913382 41.9642733,3.9872025 41.97439,3.62486807 C41.9747465,3.61209971 41.9754757,3.59934447 41.9765766,3.58661866 L41.9765766,3.58661866 C42.0065723,3.23988947 41.7498091,2.93449357 41.40308,2.90449782 C41.3823709,2.90270627 41.3615859,2.90194049 41.3408012,2.90220328 L33.2871476,3.00402928 C32.8799468,3.00917771 32.554019,3.34345279 32.5591674,3.75065358 C32.5593654,3.76631937 32.5600628,3.78197486 32.5612582,3.79759623 L32.5612582,3.79759623 C32.5937553,4.22223557 32.2758612,4.59281783 31.8512218,4.62531489 C31.8463509,4.62568766 31.8414765,4.62601413 31.8365993,4.62629426 L31.5717503,4.6415065 C31.0148289,4.67349462 30.5374235,4.24795219 30.5054354,3.69103088 C30.5046646,3.67761129 30.5041618,3.66417766 30.5039272,3.65073801 Z M44.3107051,12.5923951 L44.3154136,12.6586541 C44.3479037,13.1158591 44.0036041,13.5128354 43.5463991,13.5453254 C43.5410949,13.5457023 43.5357872,13.5460283 43.5304768,13.5463032 L31.4274605,14.1728476 C30.8601843,14.2022141 30.3755473,13.7682334 30.3423616,13.2011678 L30.3423616,13.2011678 C30.3101938,12.6514972 30.7297128,12.1798239 31.2793835,12.1476562 C31.2890667,12.1470895 31.2987576,12.1466642 31.3084532,12.1463803 L35.5550208,12.0220563 C36.0525163,12.0074915 36.4440089,11.5923845 36.4294441,11.0948891 C36.4294099,11.0937234 36.4293735,11.0925577 36.4293349,11.0913922 L36.4293349,11.0913922 C36.4127727,10.5919657 35.9945815,10.2004696 35.4951487,10.2168394 L31.7260828,10.3403772 C31.2595851,10.3556675 30.8686817,9.99058409 30.8521081,9.52413022 L30.8521081,9.52413022 C30.8355084,9.05694188 31.1987232,8.66376163 31.6657606,8.64335099 L35.6762626,8.46808252 C36.0419372,8.45210167 36.32542,8.14270878 36.3094392,7.77703415 C36.3094245,7.77669955 36.3094097,7.77636495 36.3093945,7.77603037 L36.3093945,7.77603037 C36.2929793,7.41303318 35.9854047,7.13207301 35.6224075,7.14848827 C35.6204801,7.14857543 35.6185531,7.14867107 35.6166265,7.14877518 L31.7271885,7.35896264 C31.1603542,7.38959469 30.6753763,6.95629813 30.6422125,6.38960635 L30.6422125,6.38960635 C30.6102607,5.84362707 31.0269624,5.37512141 31.5729417,5.34316968 C31.5847793,5.34247693 31.5966283,5.34199684 31.6084832,5.34172967 L43.1715872,5.08113084 C43.6065598,5.07132782 43.9689417,5.41232772 43.9855776,5.84709261 L43.9855776,5.84709261 C44.0022194,6.28200912 43.6671241,6.64996724 43.2325515,6.67396793 L39.2504335,6.89389345 C38.8621422,6.91533811 38.5582763,7.23644907 38.5582763,7.62533211 L38.5582763,7.62533211 C38.5582763,7.99089809 38.8546261,8.28724788 39.2201921,8.28724788 C39.2303819,8.28724788 39.2405703,8.28701258 39.2507492,8.28654217 L42.8380332,8.12075941 C43.3632658,8.0964863 43.815248,8.48838297 43.8656373,9.01175613 L43.8656373,9.01175613 C43.9123068,9.49649348 43.5571826,9.92728385 43.0724453,9.97395335 C43.0541616,9.97571367 43.0358273,9.97690224 43.0174694,9.97751732 L39.4624556,10.0966286 C38.9536364,10.1136767 38.5451651,10.5222879 38.5282912,11.0311129 L38.5282912,11.0311129 C38.5127007,11.501239 38.8811746,11.8949901 39.3513008,11.9105806 C39.3684148,11.9111482 39.385542,11.9111995 39.4026591,11.9107345 L40.2351462,11.8881188 C40.5034704,11.8808295 40.7172028,11.6612119 40.7172028,11.3927887 L40.7172028,11.3927887 C40.7172028,11.126458 40.9331065,10.9105542 41.1994372,10.9105542 L42.244124,10.9105542 C42.493809,10.9105542 42.6962188,11.112964 42.6962188,11.362649 L42.6962188,11.362649 C42.6962188,11.6123341 42.8986285,11.8147438 43.1483135,11.8147438 L43.4758311,11.8147438 C43.9150603,11.8147438 44.279571,12.1542708 44.3107051,12.5923951 Z M46.3960251,3.59045871 L46.3843849,2.9235463 C46.3678055,1.97365266 47.1224077,1.18916128 48.0722288,1.16884815 L51.5057588,1.09541776 C51.7479345,1.09023852 51.9400582,0.889717675 51.934879,0.647541914 C51.934559,0.632579908 51.9334734,0.617644083 51.9316266,0.602793052 L51.9316266,0.602793052 C51.9009956,0.356482592 52.0758385,0.131977248 52.3221489,0.101346332 C52.3337559,0.0999028993 52.3454148,0.0989131336 52.357099,0.0983792958 L53.9976285,0.0234253973 C54.2527473,0.011769312 54.4690111,0.209134863 54.4806672,0.464253693 C54.4813998,0.4802883 54.481297,0.496350176 54.4803592,0.512374094 L54.4803592,0.512374094 C54.465071,0.773614306 54.6644544,0.99778493 54.9256946,1.0130732 C54.9382846,1.01380998 54.9508989,1.01404383 54.9635075,1.01377418 L58.3990716,0.940300283 C59.279998,0.921460554 60.0094026,1.6203199 60.0282423,2.50124633 C60.0288894,2.53150089 60.0286755,2.56176773 60.0276009,2.59201012 L60.0059761,3.20062775 C59.9847515,3.79797764 59.4856615,4.26637362 58.8881675,4.24969102 L58.5042344,4.23897124 C58.1419,4.22885451 57.8563711,3.92692319 57.8664878,3.56458877 C57.8668443,3.5518204 57.8675735,3.53906516 57.8686744,3.52633936 L57.8686744,3.52633936 C57.8986702,3.17961017 57.641907,2.87421427 57.2951778,2.84421852 C57.2744688,2.84242697 57.2536838,2.84166118 57.232899,2.84192397 L49.1792454,2.94374998 C48.7720446,2.9488984 48.4461168,3.28317348 48.4512652,3.69037427 C48.4514633,3.70604006 48.4521606,3.72169556 48.4533561,3.73731692 L48.4533561,3.73731692 C48.4858531,4.16195626 48.167959,4.53253853 47.7433197,4.56503558 C47.7384487,4.56540835 47.7335743,4.56573482 47.7286971,4.56601495 L47.4638481,4.5812272 C46.9069268,4.61321531 46.4295214,4.18767288 46.3975333,3.63075157 C46.3967625,3.61733199 46.3962596,3.60389836 46.3960251,3.59045871 Z M60.2006775,12.5022062 L60.2075115,12.5983748 C60.2400015,13.0555798 59.895702,13.4525561 59.438497,13.4850461 C59.4331928,13.485423 59.4278851,13.485749 59.4225746,13.4860239 L47.3195584,14.1125682 C46.7522822,14.1419348 46.2676451,13.7079541 46.2344594,13.1408885 L46.2344594,13.1408885 C46.2022917,12.5912179 46.6218107,12.1195446 47.1714813,12.0873769 C47.1811645,12.0868102 47.1908555,12.0863849 47.2005511,12.086101 L51.4471187,11.961777 C51.9446141,11.9472122 52.3361068,11.5321052 52.3215419,11.0346098 C52.3215078,11.0334441 52.3214714,11.0322784 52.3214327,11.0311129 L52.3214327,11.0311129 C52.3048706,10.5316864 51.8866794,10.1401903 51.3872466,10.1565601 L47.6181806,10.2800979 C47.1516829,10.2953882 46.7607796,9.93030478 46.7442059,9.46385092 L46.7442059,9.46385092 C46.7276062,8.99666258 47.090821,8.60348232 47.5578584,8.58307168 L51.5683604,8.40780322 C51.934035,8.39182237 52.2175179,8.08242947 52.201537,7.71675484 C52.2015224,7.71642024 52.2015075,7.71608565 52.2014924,7.71575107 L52.2014924,7.71575107 C52.1850771,7.35275388 51.8775026,7.07179371 51.5145054,7.08820897 C51.512578,7.08829613 51.5106509,7.08839176 51.5087244,7.08849588 L47.6192863,7.29868333 C47.0524521,7.32931538 46.5674742,6.89601882 46.5343103,6.32932705 L46.5343103,6.32932705 C46.5023586,5.78334776 46.9190602,5.31484211 47.4650395,5.28289038 C47.4768771,5.28219762 47.4887262,5.28171754 47.500581,5.28145037 L59.063685,5.02085154 C59.4986576,5.01104852 59.8610395,5.35204842 59.8776755,5.7868133 L59.8776755,5.7868133 C59.8943173,6.22172982 59.5592219,6.58968793 59.1246494,6.61368863 L55.1425314,6.83361414 C54.7542401,6.8550588 54.4503741,7.17616977 54.4503741,7.5650528 L54.4503741,7.5650528 C54.4503741,7.93061879 54.7467239,8.22696857 55.1122899,8.22696857 C55.1224797,8.22696857 55.1326681,8.22673328 55.1428471,8.22626287 L58.730131,8.0604801 C59.2553637,8.036207 59.7073459,8.42810367 59.7577351,8.95147682 L59.7577351,8.95147682 C59.8044046,9.43621417 59.4492805,9.86700454 58.9645431,9.91367404 C58.9462594,9.91543436 58.9279252,9.91662293 58.9095672,9.91723802 L55.3545534,10.0363493 C54.8457343,10.0533974 54.4372629,10.4620086 54.4203891,10.9708335 L54.4203891,10.9708335 C54.4047985,11.4409597 54.7732725,11.8347108 55.2433986,11.8503013 C55.2605126,11.8508689 55.2776398,11.8509202 55.2947569,11.8504552 L56.0368584,11.830295 C56.3554935,11.8216388 56.6093006,11.560843 56.6093006,11.2420904 L56.6093006,11.2420904 C56.6093006,10.9258227 56.8656863,10.669437 57.181954,10.669437 L58.105773,10.669437 C58.4053951,10.669437 58.6482868,10.9123287 58.6482868,11.2119508 L58.6482868,11.2119508 C58.6482868,11.5115728 58.8911785,11.7544645 59.1908005,11.7544645 L59.397914,11.7544645 C59.8202498,11.7544645 60.1707409,12.0809328 60.2006775,12.5022062 Z" id="萌宝宝" fill="#FF477F"></path>
                                <g id="Group-Copy-2" stroke-width="1" fill="none" transform="translate(0.000000, 20.114286)">
                                    <g id="Shape" fill-rule="nonzero">
                                        <use fill="url(#linearGradient-4)" xlink:href="#path-5"></use>
                                        <use fill="black" fill-opacity="1" filter="url(#filter-6)" xlink:href="#path-5"></use>
                                        <path stroke-opacity="0.330502717" stroke="#FFFFFF" stroke-width="2.82911051" d="M55.1781068,6.91701786 L55.2312162,7.13715363 L55.2106125,7.36854252 C54.9242456,10.5845799 62.2471739,18.6754767 64.4249389,18.055793 C66.5331446,17.4559024 68.071159,12.9471521 68.071159,7.24308207 C68.071159,2.71454077 63.3484859,-0.001928757 58.9727987,2.24141871 C58.1601826,2.65803449 57.4865299,3.10217155 56.9399569,3.56690896 C56.0703951,4.30627569 55.5630746,5.05553011 55.3222648,5.79085067 C55.1708867,6.25308891 55.1441672,6.64081754 55.1801014,6.91704261 C55.1822884,6.9338543 55.1822947,6.93435418 55.1781068,6.91701786 Z" stroke-linejoin="square"></path>
                                    </g>
                                    <g id="Shape-Copy" fill-rule="nonzero" transform="translate(13.199641, 9.731190) scale(-1, 1) translate(-13.199641, -9.731190) ">
                                        <use fill="url(#linearGradient-4)" xlink:href="#path-7"></use>
                                        <use fill="black" fill-opacity="1" filter="url(#filter-8)" xlink:href="#path-7"></use>
                                        <path stroke-opacity="0.330502717" stroke="#FFFFFF" stroke-width="2.82911051" d="M6.75834039,6.89699056 L6.81144979,7.11712633 L6.79084614,7.34851522 C6.50447918,10.5645526 13.8274075,18.6554494 16.0051725,18.0357657 C18.1133782,17.4358751 19.6513926,12.9271248 19.6513926,7.22305477 C19.6513926,2.69451347 14.9287195,-0.0219560552 10.5530323,2.22139141 C9.74041618,2.63800719 9.06676348,3.08214425 8.52019048,3.54688166 C7.65062869,4.28624839 7.1433082,5.03550281 6.90249844,5.77082337 C6.75112027,6.23306161 6.72440082,6.62079024 6.76033496,6.89701531 C6.76252199,6.913827 6.76252831,6.91432689 6.75834039,6.89699056 Z" stroke-linejoin="square"></path>
                                    </g>
                                    <g id="Shape" fill-rule="nonzero">
                                        <use fill="url(#linearGradient-9)" xlink:href="#path-10"></use>
                                        <use fill="black" fill-opacity="1" filter="url(#filter-11)" xlink:href="#path-10"></use>
                                    </g>
                                    <path d="M52.9038114,14.6602322 C50.6775864,14.6602322 48.7331621,16.3431209 48.6627119,18.6341123 C48.5922618,20.8119683 50.3816957,22.8908308 52.6220107,22.8908308 C54.8482357,22.8908308 56.79266,21.2079421 56.8631102,18.9169507 C56.9335603,16.7249528 55.1441264,14.6602322 52.9038114,14.6602322 Z" id="Shape" fill="#331F0F" fill-rule="nonzero"></path>
                                    <path d="M52.4824769,15.6535803 C51.6421089,15.6535803 50.8997838,16.2864082 50.8717716,17.1583045 C50.8437593,17.9880123 51.5300598,18.7755315 52.3704278,18.7755315 C53.2107958,18.7755315 53.9531209,18.1427035 53.9811332,17.2708073 C54.0231516,16.4410995 53.336851,15.6535803 52.4824769,15.6535803 Z" id="Shape" fill="#FFFFFF" fill-rule="nonzero"></path>
                                    <path d="M21.6432429,14.6602322 C23.8694719,14.6602322 25.8138998,16.3431209 25.8843501,18.6341123 C25.9548004,20.8119683 24.1653631,22.8908308 21.925044,22.8908308 C19.698815,22.8908308 17.7543871,21.2079421 17.6839368,18.9169507 C17.6134865,16.7249528 19.4170139,14.6602322 21.6432429,14.6602322 Z" id="Shape" fill="#331F0F" fill-rule="nonzero"></path>
                                    <path d="M21.6755824,15.3697665 C22.5159504,15.3697665 23.2582755,16.0025945 23.2862877,16.8744908 C23.3143,17.7041985 22.6279995,18.4917178 21.7876315,18.4917178 C20.9472635,18.4917178 20.2049384,17.8588898 20.1769261,16.9869935 C20.1349077,16.1572858 20.8212083,15.3697665 21.6755824,15.3697665 Z" id="Shape" fill="#FFFFFF" fill-rule="nonzero"></path>
                                    <g id="Shape" fill-rule="nonzero">
                                        <use fill="url(#linearGradient-12)" xlink:href="#path-13"></use>
                                        <use fill="black" fill-opacity="1" filter="url(#filter-14)" xlink:href="#path-13"></use>
                                    </g>
                                    <rect id="Rectangle-4" fill="#633D1D" fill-rule="nonzero" x="36.9198922" y="31.3614191" width="1" height="10.2172949"></rect>
                                    <path d="M37.8666667,17.7558493 C39.3110373,17.7558493 40.755408,19.056671 42.1997786,21.6583144 L42.1998053,21.6582996 C42.4857583,22.1733666 42.3000246,22.8227215 41.7849577,23.1086745 C41.7783325,23.1123526 41.7716684,23.11596 41.7649664,23.1194961 C40.666636,23.6989952 39.3672028,23.9887447 37.8666667,23.9887447 C36.366138,23.9887447 35.0667103,23.6989981 33.9683834,23.1195048 L33.9683758,23.1195192 C33.4473384,22.8446123 33.2478102,22.1993719 33.5227172,21.6783345 C33.5262534,21.6716321 33.529861,21.6649677 33.5335393,21.6583422 C34.9779151,19.0566803 36.4222909,17.7558493 37.8666667,17.7558493 Z" id="Triangle" fill="#633D1D" fill-rule="nonzero" transform="translate(37.866664, 20.872297) scale(1, -1) translate(-37.866664, -20.872297) "></path>
                                    <path d="M61.3069199,32.4646485 C60.5490174,30.8111513 57.5454779,30.597337 56.1700252,31.3528142 C54.4998327,32.2650885 54.7103612,34.2464343 56.4647651,34.8023515 C58.0086405,35.3012515 62.5981611,35.2869972 61.3069199,32.4646485 Z" id="Shape" fill-opacity="0.16553442" fill="#000000" fill-rule="nonzero" filter="url(#filter-15)"></path>
                                    <path d="M20.1428388,32.4646485 C19.3849994,30.8111513 16.3817101,30.597337 15.006372,31.3528142 C13.3363186,32.2650885 13.5468295,34.2464343 15.3010873,34.8023515 C16.8588682,35.3012515 21.4339725,35.2869972 20.1428388,32.4646485 Z" id="Shape" fill-opacity="0.16553442" fill="#000000" fill-rule="nonzero" filter="url(#filter-16)"></path>
                                    <path d="M32.3933154,43.4123511 C33.7642121,42.0007172 35.3760157,41.2949002 37.2287259,41.2949002 C39.0814362,41.2949002 40.6932397,42.0007172 42.0641365,43.4123511" id="Path-11" stroke="#633D1D" stroke-width="0.848733154" stroke-linecap="round" stroke-linejoin="round" fill-rule="nonzero"></path>
                                </g>
                            </g>
                        </g>
                    </g>
                </g>
            </g>
        </g>
    </g>
</svg>