<?xml version="1.0" encoding="UTF-8"?>
<svg width="130px" height="74px" viewBox="0 0 130 74" version="1.1" xmlns="http://www.w3.org/2000/svg" xmlns:xlink="http://www.w3.org/1999/xlink">
    <!-- Generator: Sketch 52.4 (67378) - http://www.bohemiancoding.com/sketch -->
    <title>img_lists_placeholder</title>
    <desc>Created with Sketch.</desc>
    <g id="分类" stroke="none" stroke-width="1" fill="none" fill-rule="evenodd">
        <g id="分类-二级分类-孕期产后不可筛选营养功效" transform="translate(-16.000000, -212.000000)">
            <g id="Group" transform="translate(0.000000, 108.000000)">
                <g id="Group-15-Copy" transform="translate(0.000000, 94.000000)">
                    <g id="Group-3" transform="translate(16.000000, 10.000000)">
                        <g id="Group-2">
                            <rect id="Rectangle-10" fill="#F8F8F8" fill-rule="nonzero" x="0" y="0" width="130" height="74" rx="4"></rect>
                            <path d="M37.2709354,33.5551144 L37.2709354,33.5551144 C39.4372561,33.4876163 41.248124,35.1890482 41.3156221,37.3553689 C41.3166232,37.3875 41.3172295,37.4196422 41.3174408,37.4517882 L41.3477354,42.0603024 C41.3621968,44.2602272 39.5951186,46.057725 37.3952674,46.0808106 L37.3952674,46.0808106 C35.1961162,46.1038889 33.3929362,44.3431512 33.3636364,42.1440742 L33.304452,37.7020321 C33.2747054,35.4694283 35.0392165,33.6246501 37.2709354,33.5551144 Z M37.1959058,43.3845369 L37.5195993,43.3669098 C38.3740146,43.3203815 39.03696,42.6035766 39.0167427,41.7481343 L38.9254907,37.8870346 C38.9049544,37.0180942 38.1838911,36.3303268 37.3149508,36.3508631 C37.300272,36.35121 37.2855987,36.3517623 37.2709354,36.3525199 L36.6561965,36.3842795 C36.1013829,36.4129431 35.6731064,36.8830013 35.6960639,37.4380802 L35.6960639,37.4380802 C35.7177743,37.9630076 36.1609119,38.3709456 36.6858393,38.3492351 C36.7025788,38.3485428 36.7192972,38.3474084 36.7359768,38.345833 L37.0637155,38.3148789 C37.7506543,38.2499993 38.3601237,38.7542779 38.4250033,39.4412168 C38.4275135,39.4677944 38.4291712,39.4944456 38.4299738,39.5211293 L38.4341634,39.6604144 C38.455523,40.3705251 37.8981044,40.963952 37.1880474,40.9870275 L37.1141709,40.9894283 C36.4465711,41.011124 35.9229624,41.5699084 35.9446581,42.2375082 C35.9446807,42.2382045 35.944704,42.2389008 35.9447278,42.2395971 L35.9447278,42.2395971 C35.9671592,42.8949476 36.51661,43.40803 37.1719606,43.3855986 C37.1799457,43.3853252 37.1879278,43.3849713 37.1959058,43.3845369 Z M42.436311,45.7537283 L42.3392268,37.489074 C42.3095062,34.9590057 44.3152082,32.8730664 46.8444965,32.8035726 L46.8444965,32.8035726 C49.279862,32.7366594 51.3083597,34.6566693 51.3752729,37.0920348 C51.3766167,37.1409436 51.3771467,37.1898714 51.3768627,37.2387979 L51.3281492,45.630767 C51.3238499,46.3714274 50.7345457,46.976055 49.9942396,46.9993617 L49.9942396,46.9993617 C49.2947838,47.0213823 48.7099117,46.4722126 48.6878911,45.7727568 C48.6872788,45.7533078 48.6871145,45.7338472 48.6873986,45.7143907 L48.8029578,37.7979009 C48.819749,36.647606 47.9008626,35.7014958 46.7505677,35.6847046 C46.740434,35.6845567 46.7302994,35.6844827 46.7201646,35.6844827 L45.4008971,35.6844827 C44.9844972,35.6844827 44.6469384,36.0220416 44.6469384,36.4384415 C44.6469384,36.45156 44.6472808,36.4646762 44.6479652,36.4777768 L44.6479652,36.4777768 C44.6708666,36.9161403 45.0443738,37.2531906 45.4827792,37.2311073 L46.6679804,37.1714064 C47.408858,37.1340869 48.0418833,37.6997424 48.0878162,38.4401359 L48.0878162,38.4401359 C48.1330092,39.1686041 47.5791053,39.7957804 46.8506371,39.8409734 C46.8449851,39.8413241 46.8393309,39.8416384 46.8336748,39.8419163 L45.5657156,39.9042282 C45.1288753,39.925696 44.7921494,40.2972281 44.8136172,40.7340684 C44.8136573,40.7348835 44.8136986,40.7356986 44.8137412,40.7365135 L44.8137412,40.7365135 C44.8360616,41.1637572 45.2005053,41.4920124 45.627749,41.4696919 C45.6342332,41.4693531 45.6407128,41.4689329 45.6471864,41.4684312 L46.7550951,41.3825734 C47.457801,41.328117 48.0716024,41.853627 48.1260588,42.5563328 C48.1275817,42.5759839 48.1286491,42.5956675 48.1292602,42.615368 L48.1292602,42.615368 C48.1520307,43.3494466 47.5754016,43.9629941 46.8413229,43.9857647 C46.8390265,43.9858359 46.8367298,43.9859012 46.834433,43.9859605 L46.3577833,43.9982732 C45.5763293,44.0184596 44.9591999,44.6683175 44.9793863,45.4497715 C44.9794272,45.4513563 44.9794708,45.4529411 44.9795171,45.4545258 L44.9833898,45.5871785 C45.0043534,46.3052435 44.4530558,46.9110163 43.7361975,46.9576093 L43.7361975,46.9576093 C43.0633928,47.001339 42.482527,46.491373 42.4387973,45.8185684 C42.4373942,45.7969809 42.4365651,45.7753599 42.436311,45.7537283 Z M36.8979395,31.9267739 L36.8979395,31.9267739 C36.8979395,31.7060614 36.7190167,31.5271385 36.4983042,31.5271385 C36.4924728,31.5271385 36.4866421,31.5272662 36.4808163,31.5275214 L34.5890179,31.6103854 C33.7556843,31.6468869 33.0481334,31.0060436 33.0022047,30.1731764 L33.0022047,30.1731764 C32.9588818,29.3875628 33.5606273,28.715577 34.3462409,28.6722541 C34.3723638,28.6708135 34.3985214,28.6700928 34.4246839,28.6700928 L36.0641264,28.6700928 C36.4330731,28.6700928 36.7321636,28.3710024 36.7321636,28.0020557 L36.7321636,28.0020557 C36.7321636,27.633109 37.031254,27.3340186 37.4002007,27.3340186 L39.0480935,27.3340186 C39.4170403,27.3340186 39.7161307,27.633109 39.7161307,28.0020557 L39.7161307,28.0020557 C39.7161307,28.3655769 40.0108228,28.660269 40.3743439,28.660269 C40.3775943,28.660269 40.3808445,28.6602449 40.3840945,28.6601968 L44.6845492,28.5964843 C45.0550453,28.5909953 45.352513,28.2890878 45.352513,27.9185511 L45.352513,27.9185511 C45.352513,27.5496043 45.6516034,27.2505139 46.0205501,27.2505139 L47.585555,27.2505139 C47.9545017,27.2505139 48.2535921,27.5496043 48.2535921,27.9185511 L48.2535921,27.9185511 C48.2535921,28.2785435 48.5454237,28.570375 48.9054161,28.570375 C48.9107539,28.570375 48.9160915,28.5703095 48.9214277,28.5701783 L50.5219844,28.5308499 C51.1548027,28.5153005 51.6884691,28.9990911 51.7348871,29.6303962 L51.7348871,29.6303962 C51.7793718,30.2354073 51.3249754,30.7619276 50.7199643,30.8064122 C50.7095025,30.8071815 50.6990302,30.8078008 50.6885506,30.80827 L48.590052,30.9022305 C48.3029194,30.9150869 48.0700661,31.139304 48.0463722,31.425746 L48.0463722,31.425746 C48.0229505,31.7088971 47.7863074,31.9267739 47.5021892,31.9267739 L45.7700362,31.9267739 C45.5394445,31.9267739 45.352513,31.7398423 45.352513,31.5092506 L45.352513,31.5092506 C45.352513,31.2885382 45.1735902,31.1096153 44.9528777,31.1096153 C44.9470463,31.1096153 44.9412156,31.109743 44.9353897,31.1099982 L40.0920783,31.3221436 C39.8354858,31.3333828 39.6332427,31.5446784 39.6332427,31.8015169 L39.6332427,31.8015169 C39.6332427,32.0574037 39.4299487,32.2669987 39.174181,32.2748069 L37.3152683,32.3315567 C37.0917129,32.3383815 36.9049529,32.1626866 36.8981281,31.9391313 C36.8980024,31.9350133 36.8979395,31.9308937 36.8979395,31.9267739 Z M54.94222,32.0606411 L54.9260741,31.1334798 C54.9031584,29.8175627 55.9485123,28.7307933 57.2643267,28.7025889 L61.8800334,28.6036518 C62.3328811,28.593945 62.7056495,28.2445647 62.7446377,27.7932941 L62.7446377,27.7932941 C62.7834087,27.3445379 63.1589969,27 63.6094248,27 L65.2389352,27 C65.6611715,27 66.0098138,27.3299461 66.0330628,27.7515418 L66.0330628,27.7515418 C66.0561739,28.1706361 66.4073829,28.4959484 66.8270176,28.4869536 L71.5269151,28.3862118 C72.7472926,28.3600531 73.7578098,29.3281588 73.7839685,30.5485363 C73.7848664,30.5904255 73.7845729,30.6323317 73.7830885,30.6742042 L73.7530797,31.5207035 C73.7238118,32.3463019 73.0340107,32.9936912 72.208217,32.9705819 L71.6797302,32.9557925 C71.1776695,32.9417426 70.7820586,32.5233523 70.7961085,32.0212916 C70.7966014,32.0036776 70.7976061,31.9860817 70.7991214,31.9685262 L70.7991214,31.9685262 C70.8405871,31.4881237 70.4847584,31.065066 70.004356,31.0236004 C69.9757112,31.0211279 69.9469618,31.0200719 69.9182128,31.0204362 L58.7914541,31.1614367 C58.2272546,31.1685864 57.7756765,31.6317564 57.7828261,32.1959559 C57.7831003,32.2175931 57.7840618,32.2392162 57.7857093,32.2607924 L57.7857093,32.2607924 C57.8306388,32.8492215 57.3900454,33.36266 56.8016163,33.4075895 C56.7949741,33.4080967 56.7883272,33.4085417 56.7816767,33.4089246 L56.4180577,33.4298574 C55.6484379,33.4741629 54.9886211,32.8861794 54.9443156,32.1165596 C54.9432435,32.097936 54.9425448,32.0792927 54.94222,32.0606411 Z M74.0250722,44.4417552 L74.0317525,44.5359747 C74.0766711,45.1695147 73.5994993,45.7195141 72.9659593,45.7644328 C72.9587156,45.7649464 72.9514672,45.7653913 72.9442151,45.7657676 L56.2218287,46.6334138 C55.4360515,46.6741841 54.7647187,46.0730128 54.7188542,45.2875165 L54.7188542,45.2875165 C54.6743846,44.5259088 55.2557399,43.8724541 56.0173476,43.8279845 C56.0306729,43.8272064 56.0440089,43.8266215 56.0573512,43.82623 L61.9207118,43.654182 C62.6099845,43.6339567 63.1523547,43.058795 63.1321294,42.3695222 C63.1320838,42.3679661 63.1320352,42.36641 63.1319837,42.3648541 L63.1319837,42.3648541 C63.1090932,41.6730312 62.5297886,41.1307058 61.8379604,41.1534333 L56.6340146,41.3243897 C55.9878102,41.3456183 55.4463083,40.8398805 55.423402,40.1937334 L55.423402,40.1937334 C55.4004574,39.5465058 55.903623,39.0018186 56.5506368,38.9734782 L62.089047,38.7308863 C62.5957119,38.7086935 62.9884542,38.2799696 62.9662614,37.7733047 C62.9662438,37.7729027 62.9662259,37.7725007 62.9662078,37.7720988 L62.9662078,37.7720988 C62.9435245,37.2693535 62.5175805,36.8801864 62.0148352,36.9028697 C62.0120975,36.9029932 62.0093604,36.9031291 62.006624,36.9032773 L56.6360975,37.1941634 C55.8509342,37.2366906 55.1791282,36.6364692 55.1332941,35.851492 L55.1332941,35.851492 C55.0891238,35.0950106 55.6665661,34.4459541 56.4230475,34.4017838 C56.4393653,34.400831 56.4556988,34.4001699 56.4720402,34.3998008 L72.4483505,34.0389225 C73.0508894,34.0253122 73.5528761,34.4976963 73.5758686,35.0999502 L73.5758686,35.0999502 C73.5988715,35.7024747 73.1346637,36.212227 72.5326219,36.2455524 L67.0333424,36.5499586 C66.4954295,36.5797341 66.0745068,37.0246008 66.0745068,37.5633372 L66.0745068,37.5633372 C66.0745068,38.0697009 66.4849957,38.4801898 66.9913594,38.4801898 C67.0055059,38.4801898 67.0196504,38.4798624 67.0337817,38.4792078 L71.9868734,38.2497852 C72.7143927,38.2160872 73.3404531,38.7589818 73.4100927,39.4839439 L73.4100927,39.4839439 C73.474616,40.1556451 72.982401,40.752473 72.3106998,40.8169963 C72.2854827,40.8194187 72.2601963,40.8210561 72.2348773,40.8219064 L67.3270558,40.9867175 C66.6221944,41.0103877 66.0563851,41.5764764 66.0330628,42.2813494 L66.0330628,42.2813494 C66.0115141,42.9326217 66.5220059,43.478051 67.1732782,43.4995997 C67.1969812,43.500384 67.2207024,43.5004534 67.2444096,43.4998079 L68.3906843,43.468597 C68.7623985,43.458476 69.0584739,43.1542292 69.0584739,42.7823773 L69.0584739,42.7823773 C69.0584739,42.4134305 69.3575644,42.1143401 69.7265111,42.1143401 L71.1674923,42.1143401 C71.5133799,42.1143401 71.7937771,42.3947374 71.7937771,42.7406249 L71.7937771,42.7406249 C71.7937771,43.0865125 72.0741744,43.3669098 72.4200619,43.3669098 L72.8713208,43.3669098 C73.4783766,43.3669098 73.9821391,43.8362195 74.0250722,44.4417552 Z M76.9075335,31.9771365 L76.8913876,31.0499751 C76.8684718,29.734058 77.9138258,28.6472886 79.2296401,28.6190843 L83.9684082,28.5175093 C84.3039913,28.5103162 84.5702039,28.2324411 84.5630107,27.8968579 C84.5625678,27.8761912 84.5610707,27.8555606 84.5585253,27.8350464 L84.5585253,27.8350464 C84.5161725,27.4937031 84.7585522,27.1826559 85.0998955,27.1403031 C85.1159022,27.1383171 85.1319799,27.1369536 85.1480924,27.1362157 L87.4124542,27.0325245 C87.7658749,27.0163404 88.0654988,27.2897247 88.0816829,27.6431454 C88.0826998,27.6653523 88.0825601,27.6875971 88.0812643,27.7097895 L88.0812643,27.7097895 C88.0601318,28.0717147 88.3363989,28.3822443 88.6983241,28.4033768 C88.7157481,28.4043942 88.7332057,28.4047163 88.7506554,28.4043422 L93.4922286,28.3027071 C94.7126061,28.2765485 95.7231233,29.2446542 95.749282,30.4650317 C95.7501799,30.5069209 95.7498864,30.5488271 95.748402,30.5906996 L95.7183932,31.4371989 C95.6891252,32.2627973 94.9993242,32.9101866 94.1735305,32.8870772 L93.6450437,32.8722878 C93.142983,32.8582379 92.7473721,32.4398476 92.7614219,31.937787 C92.7619149,31.920173 92.7629196,31.9025771 92.7644349,31.8850215 L92.7644349,31.8850215 C92.8059005,31.4046191 92.4500719,30.9815614 91.9696694,30.9400957 C91.9410247,30.9376233 91.9122753,30.9365673 91.8835263,30.9369316 L80.7567676,31.0779321 C80.1925681,31.0850817 79.7409899,31.5482517 79.7481396,32.1124512 C79.7484138,32.1340885 79.7493753,32.1557116 79.7510228,32.1772878 L79.7510228,32.1772878 C79.7959523,32.7657168 79.3553589,33.2791554 78.7669298,33.3240849 C78.7602876,33.324592 78.7536407,33.3250371 78.7469901,33.32542 L78.3833712,33.3463528 C77.6137514,33.3906582 76.9539346,32.8026748 76.9096291,32.033055 C76.908557,32.0144313 76.9078583,31.9957881 76.9075335,31.9771365 Z M95.9874546,44.3169104 L95.9970659,44.4524701 C96.0419846,45.0860101 95.5648128,45.6360095 94.9312728,45.6809281 C94.9240291,45.6814417 94.9167807,45.6818867 94.9095286,45.682263 L78.1871422,46.5499092 C77.401365,46.5906794 76.7300321,45.9895082 76.6841677,45.2040119 L76.6841677,45.2040119 C76.6396981,44.4424042 77.2210533,43.7889494 77.982661,43.7444798 C77.9959864,43.7437018 78.0093223,43.7431169 78.0226647,43.7427254 L83.8860253,43.5706774 C84.575298,43.5504521 85.1176682,42.9752903 85.0974429,42.2860176 C85.0973972,42.2844614 85.0973487,42.2829054 85.0972972,42.2813494 L85.0972972,42.2813494 C85.0744067,41.5895266 84.495102,41.0472012 83.8032738,41.0699286 L78.5993281,41.240885 C77.9531237,41.2621137 77.4116217,40.7563759 77.3887155,40.1102287 L77.3887155,40.1102287 C77.3657709,39.4630012 77.8689365,38.9183139 78.5159503,38.8899736 L84.0543605,38.6473817 C84.5610254,38.6251889 84.9537676,38.196465 84.9315748,37.6898001 C84.9315572,37.6893981 84.9315394,37.6889961 84.9315212,37.6885941 L84.9315212,37.6885941 C84.9088379,37.1858489 84.4828939,36.7966818 83.9801487,36.8193651 C83.977411,36.8194886 83.9746739,36.8196245 83.9719375,36.8197727 L78.601411,37.1106588 C77.8162477,37.1531859 77.1444417,36.5529646 77.0986076,35.7679874 L77.0986076,35.7679874 C77.0544373,35.0115059 77.6318796,34.3624494 78.388361,34.3182791 C78.4046788,34.3173264 78.4210123,34.3166652 78.4373537,34.3162961 L94.413664,33.9554179 C95.0162029,33.9418075 95.5181895,34.4141917 95.5411821,35.0164456 L95.5411821,35.0164456 C95.564185,35.6189701 95.0999772,36.1287224 94.4979354,36.1620477 L88.9986558,36.4664539 C88.460743,36.4962295 88.0398203,36.9410962 88.0398203,37.4798325 L88.0398203,37.4798325 C88.0398203,37.9861962 88.4503092,38.3966851 88.9566729,38.3966851 C88.9708194,38.3966851 88.9849639,38.3963577 88.9990952,38.3957032 L93.9521869,38.1662806 C94.6797061,38.1325826 95.3057666,38.6754771 95.3754061,39.4004393 L95.3754061,39.4004393 C95.4399294,40.0721405 94.9477145,40.6689684 94.2760133,40.7334917 C94.2507961,40.735914 94.2255097,40.7375515 94.2001908,40.7384017 L89.2923693,40.9032129 C88.5875079,40.9268831 88.0216986,41.4929717 87.9983763,42.1978448 L87.9983763,42.1978448 C87.9768276,42.8491171 88.4873194,43.3945463 89.1385917,43.4160951 C89.1622947,43.4168794 89.1860159,43.4169488 89.2097231,43.4163033 L90.2307872,43.3885016 C90.6721978,43.3764829 91.0237874,43.0151898 91.0237874,42.5736157 L91.0237874,42.5736157 C91.0237874,42.1354914 91.3789573,41.7803216 91.8170815,41.7803216 L93.0904368,41.7803216 C93.5055019,41.7803216 93.8419786,42.1167983 93.8419786,42.5318633 L93.8419786,42.5318633 C93.8419786,42.9469284 94.1784553,43.2834051 94.5935204,43.2834051 L94.8780783,43.2834051 C95.4617858,43.2834051 95.9461727,43.7346645 95.9874546,44.3169104 Z" id="萌宝宝" fill="#FFFFFF"></path>
                        </g>
                    </g>
                </g>
            </g>
        </g>
    </g>
</svg>