<?xml version="1.0" encoding="UTF-8"?>
<svg width="95px" height="71px" viewBox="0 0 95 71" version="1.1" xmlns="http://www.w3.org/2000/svg" xmlns:xlink="http://www.w3.org/1999/xlink">
    <!-- Generator: Sketch 52.4 (67378) - http://www.bohemiancoding.com/sketch -->
    <title>img_eat_placeholder</title>
    <desc>Created with Sketch.</desc>
    <g id="首页" stroke="none" stroke-width="1" fill="none" fill-rule="evenodd">
        <g id="搜索-有内容时-能不能吃" transform="translate(-15.000000, -1001.000000)">
            <g id="Group" transform="translate(0.000000, 124.000000)">
                <g id="Group-12" transform="translate(0.000000, 830.000000)">
                    <g id="Group-10" transform="translate(0.000000, 40.000000)">
                        <g id="Group-5" transform="translate(15.000000, 7.000000)">
                            <g id="Group-4" transform="translate(1.000000, 1.000000)">
                                <rect id="Rectangle-4" stroke="#F5F5F5" fill="#F8F8F8" x="0" y="0" width="93" height="69" rx="4"></rect>
                                <path d="M19.2709354,31.5551144 L19.2709354,31.5551144 C21.4372561,31.4876163 23.248124,33.1890482 23.3156221,35.3553689 C23.3166232,35.3875 23.3172295,35.4196422 23.3174408,35.4517882 L23.3477354,40.0603024 C23.3621968,42.2602272 21.5951186,44.057725 19.3952674,44.0808106 L19.3952674,44.0808106 C17.1961162,44.1038889 15.3929362,42.3431512 15.3636364,40.1440742 L15.304452,35.7020321 C15.2747054,33.4694283 17.0392165,31.6246501 19.2709354,31.5551144 Z M19.1959058,41.3845369 L19.5195993,41.3669098 C20.3740146,41.3203815 21.03696,40.6035766 21.0167427,39.7481343 L20.9254907,35.8870346 C20.9049544,35.0180942 20.1838911,34.3303268 19.3149508,34.3508631 C19.300272,34.35121 19.2855987,34.3517623 19.2709354,34.3525199 L18.6561965,34.3842795 C18.1013829,34.4129431 17.6731064,34.8830013 17.6960639,35.4380802 L17.6960639,35.4380802 C17.7177743,35.9630076 18.1609119,36.3709456 18.6858393,36.3492351 C18.7025788,36.3485428 18.7192972,36.3474084 18.7359768,36.345833 L19.0637155,36.3148789 C19.7506543,36.2499993 20.3601237,36.7542779 20.4250033,37.4412168 C20.4275135,37.4677944 20.4291712,37.4944456 20.4299738,37.5211293 L20.4341634,37.6604144 C20.455523,38.3705251 19.8981044,38.963952 19.1880474,38.9870275 L19.1141709,38.9894283 C18.4465711,39.011124 17.9229624,39.5699084 17.9446581,40.2375082 C17.9446807,40.2382045 17.944704,40.2389008 17.9447278,40.2395971 L17.9447278,40.2395971 C17.9671592,40.8949476 18.51661,41.40803 19.1719606,41.3855986 C19.1799457,41.3853252 19.1879278,41.3849713 19.1959058,41.3845369 Z M24.436311,43.7537283 L24.3392268,35.489074 C24.3095062,32.9590057 26.3152082,30.8730664 28.8444965,30.8035726 L28.8444965,30.8035726 C31.279862,30.7366594 33.3083597,32.6566693 33.3752729,35.0920348 C33.3766167,35.1409436 33.3771467,35.1898714 33.3768627,35.2387979 L33.3281492,43.630767 C33.3238499,44.3714274 32.7345457,44.976055 31.9942396,44.9993617 L31.9942396,44.9993617 C31.2947838,45.0213823 30.7099117,44.4722126 30.6878911,43.7727568 C30.6872788,43.7533078 30.6871145,43.7338472 30.6873986,43.7143907 L30.8029578,35.7979009 C30.819749,34.647606 29.9008626,33.7014958 28.7505677,33.6847046 C28.740434,33.6845567 28.7302994,33.6844827 28.7201646,33.6844827 L27.4008971,33.6844827 C26.9844972,33.6844827 26.6469384,34.0220416 26.6469384,34.4384415 C26.6469384,34.45156 26.6472808,34.4646762 26.6479652,34.4777768 L26.6479652,34.4777768 C26.6708666,34.9161403 27.0443738,35.2531906 27.4827792,35.2311073 L28.6679804,35.1714064 C29.408858,35.1340869 30.0418833,35.6997424 30.0878162,36.4401359 L30.0878162,36.4401359 C30.1330092,37.1686041 29.5791053,37.7957804 28.8506371,37.8409734 C28.8449851,37.8413241 28.8393309,37.8416384 28.8336748,37.8419163 L27.5657156,37.9042282 C27.1288753,37.925696 26.7921494,38.2972281 26.8136172,38.7340684 C26.8136573,38.7348835 26.8136986,38.7356986 26.8137412,38.7365135 L26.8137412,38.7365135 C26.8360616,39.1637572 27.2005053,39.4920124 27.627749,39.4696919 C27.6342332,39.4693531 27.6407128,39.4689329 27.6471864,39.4684312 L28.7550951,39.3825734 C29.457801,39.328117 30.0716024,39.853627 30.1260588,40.5563328 C30.1275817,40.5759839 30.1286491,40.5956675 30.1292602,40.615368 L30.1292602,40.615368 C30.1520307,41.3494466 29.5754016,41.9629941 28.8413229,41.9857647 C28.8390265,41.9858359 28.8367298,41.9859012 28.834433,41.9859605 L28.3577833,41.9982732 C27.5763293,42.0184596 26.9591999,42.6683175 26.9793863,43.4497715 C26.9794272,43.4513563 26.9794708,43.4529411 26.9795171,43.4545258 L26.9833898,43.5871785 C27.0043534,44.3052435 26.4530558,44.9110163 25.7361975,44.9576093 L25.7361975,44.9576093 C25.0633928,45.001339 24.482527,44.491373 24.4387973,43.8185684 C24.4373942,43.7969809 24.4365651,43.7753599 24.436311,43.7537283 Z M18.8979395,29.9267739 L18.8979395,29.9267739 C18.8979395,29.7060614 18.7190167,29.5271385 18.4983042,29.5271385 C18.4924728,29.5271385 18.4866421,29.5272662 18.4808163,29.5275214 L16.5890179,29.6103854 C15.7556843,29.6468869 15.0481334,29.0060436 15.0022047,28.1731764 L15.0022047,28.1731764 C14.9588818,27.3875628 15.5606273,26.715577 16.3462409,26.6722541 C16.3723638,26.6708135 16.3985214,26.6700928 16.4246839,26.6700928 L18.0641264,26.6700928 C18.4330731,26.6700928 18.7321636,26.3710024 18.7321636,26.0020557 L18.7321636,26.0020557 C18.7321636,25.633109 19.031254,25.3340186 19.4002007,25.3340186 L21.0480935,25.3340186 C21.4170403,25.3340186 21.7161307,25.633109 21.7161307,26.0020557 L21.7161307,26.0020557 C21.7161307,26.3655769 22.0108228,26.660269 22.3743439,26.660269 C22.3775943,26.660269 22.3808445,26.6602449 22.3840945,26.6601968 L26.6845492,26.5964843 C27.0550453,26.5909953 27.352513,26.2890878 27.352513,25.9185511 L27.352513,25.9185511 C27.352513,25.5496043 27.6516034,25.2505139 28.0205501,25.2505139 L29.585555,25.2505139 C29.9545017,25.2505139 30.2535921,25.5496043 30.2535921,25.9185511 L30.2535921,25.9185511 C30.2535921,26.2785435 30.5454237,26.570375 30.9054161,26.570375 C30.9107539,26.570375 30.9160915,26.5703095 30.9214277,26.5701783 L32.5219844,26.5308499 C33.1548027,26.5153005 33.6884691,26.9990911 33.7348871,27.6303962 L33.7348871,27.6303962 C33.7793718,28.2354073 33.3249754,28.7619276 32.7199643,28.8064122 C32.7095025,28.8071815 32.6990302,28.8078008 32.6885506,28.80827 L30.590052,28.9022305 C30.3029194,28.9150869 30.0700661,29.139304 30.0463722,29.425746 L30.0463722,29.425746 C30.0229505,29.7088971 29.7863074,29.9267739 29.5021892,29.9267739 L27.7700362,29.9267739 C27.5394445,29.9267739 27.352513,29.7398423 27.352513,29.5092506 L27.352513,29.5092506 C27.352513,29.2885382 27.1735902,29.1096153 26.9528777,29.1096153 C26.9470463,29.1096153 26.9412156,29.109743 26.9353897,29.1099982 L22.0920783,29.3221436 C21.8354858,29.3333828 21.6332427,29.5446784 21.6332427,29.8015169 L21.6332427,29.8015169 C21.6332427,30.0574037 21.4299487,30.2669987 21.174181,30.2748069 L19.3152683,30.3315567 C19.0917129,30.3383815 18.9049529,30.1626866 18.8981281,29.9391313 C18.8980024,29.9350133 18.8979395,29.9308937 18.8979395,29.9267739 Z M36.94222,30.0606411 L36.9260741,29.1334798 C36.9031584,27.8175627 37.9485123,26.7307933 39.2643267,26.7025889 L43.8800334,26.6036518 C44.3328811,26.593945 44.7056495,26.2445647 44.7446377,25.7932941 L44.7446377,25.7932941 C44.7834087,25.3445379 45.1589969,25 45.6094248,25 L47.2389352,25 C47.6611715,25 48.0098138,25.3299461 48.0330628,25.7515418 L48.0330628,25.7515418 C48.0561739,26.1706361 48.4073829,26.4959484 48.8270176,26.4869536 L53.5269151,26.3862118 C54.7472926,26.3600531 55.7578098,27.3281588 55.7839685,28.5485363 C55.7848664,28.5904255 55.7845729,28.6323317 55.7830885,28.6742042 L55.7530797,29.5207035 C55.7238118,30.3463019 55.0340107,30.9936912 54.208217,30.9705819 L53.6797302,30.9557925 C53.1776695,30.9417426 52.7820586,30.5233523 52.7961085,30.0212916 C52.7966014,30.0036776 52.7976061,29.9860817 52.7991214,29.9685262 L52.7991214,29.9685262 C52.8405871,29.4881237 52.4847584,29.065066 52.004356,29.0236004 C51.9757112,29.0211279 51.9469618,29.0200719 51.9182128,29.0204362 L40.7914541,29.1614367 C40.2272546,29.1685864 39.7756765,29.6317564 39.7828261,30.1959559 C39.7831003,30.2175931 39.7840618,30.2392162 39.7857093,30.2607924 L39.7857093,30.2607924 C39.8306388,30.8492215 39.3900454,31.36266 38.8016163,31.4075895 C38.7949741,31.4080967 38.7883272,31.4085417 38.7816767,31.4089246 L38.4180577,31.4298574 C37.6484379,31.4741629 36.9886211,30.8861794 36.9443156,30.1165596 C36.9432435,30.097936 36.9425448,30.0792927 36.94222,30.0606411 Z M56.0250722,42.4417552 L56.0317525,42.5359747 C56.0766711,43.1695147 55.5994993,43.7195141 54.9659593,43.7644328 C54.9587156,43.7649464 54.9514672,43.7653913 54.9442151,43.7657676 L38.2218287,44.6334138 C37.4360515,44.6741841 36.7647187,44.0730128 36.7188542,43.2875165 L36.7188542,43.2875165 C36.6743846,42.5259088 37.2557399,41.8724541 38.0173476,41.8279845 C38.0306729,41.8272064 38.0440089,41.8266215 38.0573512,41.82623 L43.9207118,41.654182 C44.6099845,41.6339567 45.1523547,41.058795 45.1321294,40.3695222 C45.1320838,40.3679661 45.1320352,40.36641 45.1319837,40.3648541 L45.1319837,40.3648541 C45.1090932,39.6730312 44.5297886,39.1307058 43.8379604,39.1534333 L38.6340146,39.3243897 C37.9878102,39.3456183 37.4463083,38.8398805 37.423402,38.1937334 L37.423402,38.1937334 C37.4004574,37.5465058 37.903623,37.0018186 38.5506368,36.9734782 L44.089047,36.7308863 C44.5957119,36.7086935 44.9884542,36.2799696 44.9662614,35.7733047 C44.9662438,35.7729027 44.9662259,35.7725007 44.9662078,35.7720988 L44.9662078,35.7720988 C44.9435245,35.2693535 44.5175805,34.8801864 44.0148352,34.9028697 C44.0120975,34.9029932 44.0093604,34.9031291 44.006624,34.9032773 L38.6360975,35.1941634 C37.8509342,35.2366906 37.1791282,34.6364692 37.1332941,33.851492 L37.1332941,33.851492 C37.0891238,33.0950106 37.6665661,32.4459541 38.4230475,32.4017838 C38.4393653,32.400831 38.4556988,32.4001699 38.4720402,32.3998008 L54.4483505,32.0389225 C55.0508894,32.0253122 55.5528761,32.4976963 55.5758686,33.0999502 L55.5758686,33.0999502 C55.5988715,33.7024747 55.1346637,34.212227 54.5326219,34.2455524 L49.0333424,34.5499586 C48.4954295,34.5797341 48.0745068,35.0246008 48.0745068,35.5633372 L48.0745068,35.5633372 C48.0745068,36.0697009 48.4849957,36.4801898 48.9913594,36.4801898 C49.0055059,36.4801898 49.0196504,36.4798624 49.0337817,36.4792078 L53.9868734,36.2497852 C54.7143927,36.2160872 55.3404531,36.7589818 55.4100927,37.4839439 L55.4100927,37.4839439 C55.474616,38.1556451 54.982401,38.752473 54.3106998,38.8169963 C54.2854827,38.8194187 54.2601963,38.8210561 54.2348773,38.8219064 L49.3270558,38.9867175 C48.6221944,39.0103877 48.0563851,39.5764764 48.0330628,40.2813494 L48.0330628,40.2813494 C48.0115141,40.9326217 48.5220059,41.478051 49.1732782,41.4995997 C49.1969812,41.500384 49.2207024,41.5004534 49.2444096,41.4998079 L50.3906843,41.468597 C50.7623985,41.458476 51.0584739,41.1542292 51.0584739,40.7823773 L51.0584739,40.7823773 C51.0584739,40.4134305 51.3575644,40.1143401 51.7265111,40.1143401 L53.1674923,40.1143401 C53.5133799,40.1143401 53.7937771,40.3947374 53.7937771,40.7406249 L53.7937771,40.7406249 C53.7937771,41.0865125 54.0741744,41.3669098 54.4200619,41.3669098 L54.8713208,41.3669098 C55.4783766,41.3669098 55.9821391,41.8362195 56.0250722,42.4417552 Z M58.9075335,29.9771365 L58.8913876,29.0499751 C58.8684718,27.734058 59.9138258,26.6472886 61.2296401,26.6190843 L65.9684082,26.5175093 C66.3039913,26.5103162 66.5702039,26.2324411 66.5630107,25.8968579 C66.5625678,25.8761912 66.5610707,25.8555606 66.5585253,25.8350464 L66.5585253,25.8350464 C66.5161725,25.4937031 66.7585522,25.1826559 67.0998955,25.1403031 C67.1159022,25.1383171 67.1319799,25.1369536 67.1480924,25.1362157 L69.4124542,25.0325245 C69.7658749,25.0163404 70.0654988,25.2897247 70.0816829,25.6431454 C70.0826998,25.6653523 70.0825601,25.6875971 70.0812643,25.7097895 L70.0812643,25.7097895 C70.0601318,26.0717147 70.3363989,26.3822443 70.6983241,26.4033768 C70.7157481,26.4043942 70.7332057,26.4047163 70.7506554,26.4043422 L75.4922286,26.3027071 C76.7126061,26.2765485 77.7231233,27.2446542 77.749282,28.4650317 C77.7501799,28.5069209 77.7498864,28.5488271 77.748402,28.5906996 L77.7183932,29.4371989 C77.6891252,30.2627973 76.9993242,30.9101866 76.1735305,30.8870772 L75.6450437,30.8722878 C75.142983,30.8582379 74.7473721,30.4398476 74.7614219,29.937787 C74.7619149,29.920173 74.7629196,29.9025771 74.7644349,29.8850215 L74.7644349,29.8850215 C74.8059005,29.4046191 74.4500719,28.9815614 73.9696694,28.9400957 C73.9410247,28.9376233 73.9122753,28.9365673 73.8835263,28.9369316 L62.7567676,29.0779321 C62.1925681,29.0850817 61.7409899,29.5482517 61.7481396,30.1124512 C61.7484138,30.1340885 61.7493753,30.1557116 61.7510228,30.1772878 L61.7510228,30.1772878 C61.7959523,30.7657168 61.3553589,31.2791554 60.7669298,31.3240849 C60.7602876,31.324592 60.7536407,31.3250371 60.7469901,31.32542 L60.3833712,31.3463528 C59.6137514,31.3906582 58.9539346,30.8026748 58.9096291,30.033055 C58.908557,30.0144313 58.9078583,29.9957881 58.9075335,29.9771365 Z M77.9874546,42.3169104 L77.9970659,42.4524701 C78.0419846,43.0860101 77.5648128,43.6360095 76.9312728,43.6809281 C76.9240291,43.6814417 76.9167807,43.6818867 76.9095286,43.682263 L60.1871422,44.5499092 C59.401365,44.5906794 58.7300321,43.9895082 58.6841677,43.2040119 L58.6841677,43.2040119 C58.6396981,42.4424042 59.2210533,41.7889494 59.982661,41.7444798 C59.9959864,41.7437018 60.0093223,41.7431169 60.0226647,41.7427254 L65.8860253,41.5706774 C66.575298,41.5504521 67.1176682,40.9752903 67.0974429,40.2860176 C67.0973972,40.2844614 67.0973487,40.2829054 67.0972972,40.2813494 L67.0972972,40.2813494 C67.0744067,39.5895266 66.495102,39.0472012 65.8032738,39.0699286 L60.5993281,39.240885 C59.9531237,39.2621137 59.4116217,38.7563759 59.3887155,38.1102287 L59.3887155,38.1102287 C59.3657709,37.4630012 59.8689365,36.9183139 60.5159503,36.8899736 L66.0543605,36.6473817 C66.5610254,36.6251889 66.9537676,36.196465 66.9315748,35.6898001 C66.9315572,35.6893981 66.9315394,35.6889961 66.9315212,35.6885941 L66.9315212,35.6885941 C66.9088379,35.1858489 66.4828939,34.7966818 65.9801487,34.8193651 C65.977411,34.8194886 65.9746739,34.8196245 65.9719375,34.8197727 L60.601411,35.1106588 C59.8162477,35.1531859 59.1444417,34.5529646 59.0986076,33.7679874 L59.0986076,33.7679874 C59.0544373,33.0115059 59.6318796,32.3624494 60.388361,32.3182791 C60.4046788,32.3173264 60.4210123,32.3166652 60.4373537,32.3162961 L76.413664,31.9554179 C77.0162029,31.9418075 77.5181895,32.4141917 77.5411821,33.0164456 L77.5411821,33.0164456 C77.564185,33.6189701 77.0999772,34.1287224 76.4979354,34.1620477 L70.9986558,34.4664539 C70.460743,34.4962295 70.0398203,34.9410962 70.0398203,35.4798325 L70.0398203,35.4798325 C70.0398203,35.9861962 70.4503092,36.3966851 70.9566729,36.3966851 C70.9708194,36.3966851 70.9849639,36.3963577 70.9990952,36.3957032 L75.9521869,36.1662806 C76.6797061,36.1325826 77.3057666,36.6754771 77.3754061,37.4004393 L77.3754061,37.4004393 C77.4399294,38.0721405 76.9477145,38.6689684 76.2760133,38.7334917 C76.2507961,38.735914 76.2255097,38.7375515 76.2001908,38.7384017 L71.2923693,38.9032129 C70.5875079,38.9268831 70.0216986,39.4929717 69.9983763,40.1978448 L69.9983763,40.1978448 C69.9768276,40.8491171 70.4873194,41.3945463 71.1385917,41.4160951 C71.1622947,41.4168794 71.1860159,41.4169488 71.2097231,41.4163033 L72.2307872,41.3885016 C72.6721978,41.3764829 73.0237874,41.0151898 73.0237874,40.5736157 L73.0237874,40.5736157 C73.0237874,40.1354914 73.3789573,39.7803216 73.8170815,39.7803216 L75.0904368,39.7803216 C75.5055019,39.7803216 75.8419786,40.1167983 75.8419786,40.5318633 L75.8419786,40.5318633 C75.8419786,40.9469284 76.1784553,41.2834051 76.5935204,41.2834051 L76.8780783,41.2834051 C77.4617858,41.2834051 77.9461727,41.7346645 77.9874546,42.3169104 Z" id="萌宝宝" fill="#FFFFFF"></path>
                            </g>
                        </g>
                    </g>
                </g>
            </g>
        </g>
    </g>
</svg>