<?xml version="1.0" encoding="UTF-8"?>
<svg width="120px" height="74px" viewBox="0 0 120 74" version="1.1" xmlns="http://www.w3.org/2000/svg" xmlns:xlink="http://www.w3.org/1999/xlink">
    <!-- Generator: Sketch 52.4 (67378) - http://www.bohemiancoding.com/sketch -->
    <title>img_ParentingKnowledge_placeholder</title>
    <desc>Created with Sketch.</desc>
    <g id="首页" stroke="none" stroke-width="1" fill="none" fill-rule="evenodd">
        <g id="搜索-有内容时-能不能吃" transform="translate(-16.000000, -730.000000)">
            <g id="Group" transform="translate(0.000000, 124.000000)">
                <g id="Group-28" transform="translate(0.000000, 468.000000)">
                    <g id="Group-27-Copy" transform="translate(0.000000, 130.000000)">
                        <g id="Group-26" transform="translate(16.000000, 8.000000)">
                            <rect id="Rectangle" fill="#F8F8F8" fill-rule="nonzero" x="0" y="0" width="120" height="74" rx="4"></rect>
                            <path d="M33.2709354,33.5551144 L33.2709354,33.5551144 C35.4372561,33.4876163 37.248124,35.1890482 37.3156221,37.3553689 C37.3166232,37.3875 37.3172295,37.4196422 37.3174408,37.4517882 L37.3477354,42.0603024 C37.3621968,44.2602272 35.5951186,46.057725 33.3952674,46.0808106 L33.3952674,46.0808106 C31.1961162,46.1038889 29.3929362,44.3431512 29.3636364,42.1440742 L29.304452,37.7020321 C29.2747054,35.4694283 31.0392165,33.6246501 33.2709354,33.5551144 Z M33.1959058,43.3845369 L33.5195993,43.3669098 C34.3740146,43.3203815 35.03696,42.6035766 35.0167427,41.7481343 L34.9254907,37.8870346 C34.9049544,37.0180942 34.1838911,36.3303268 33.3149508,36.3508631 C33.300272,36.35121 33.2855987,36.3517623 33.2709354,36.3525199 L32.6561965,36.3842795 C32.1013829,36.4129431 31.6731064,36.8830013 31.6960639,37.4380802 L31.6960639,37.4380802 C31.7177743,37.9630076 32.1609119,38.3709456 32.6858393,38.3492351 C32.7025788,38.3485428 32.7192972,38.3474084 32.7359768,38.345833 L33.0637155,38.3148789 C33.7506543,38.2499993 34.3601237,38.7542779 34.4250033,39.4412168 C34.4275135,39.4677944 34.4291712,39.4944456 34.4299738,39.5211293 L34.4341634,39.6604144 C34.455523,40.3705251 33.8981044,40.963952 33.1880474,40.9870275 L33.1141709,40.9894283 C32.4465711,41.011124 31.9229624,41.5699084 31.9446581,42.2375082 C31.9446807,42.2382045 31.944704,42.2389008 31.9447278,42.2395971 L31.9447278,42.2395971 C31.9671592,42.8949476 32.51661,43.40803 33.1719606,43.3855986 C33.1799457,43.3853252 33.1879278,43.3849713 33.1959058,43.3845369 Z M38.436311,45.7537283 L38.3392268,37.489074 C38.3095062,34.9590057 40.3152082,32.8730664 42.8444965,32.8035726 L42.8444965,32.8035726 C45.279862,32.7366594 47.3083597,34.6566693 47.3752729,37.0920348 C47.3766167,37.1409436 47.3771467,37.1898714 47.3768627,37.2387979 L47.3281492,45.630767 C47.3238499,46.3714274 46.7345457,46.976055 45.9942396,46.9993617 L45.9942396,46.9993617 C45.2947838,47.0213823 44.7099117,46.4722126 44.6878911,45.7727568 C44.6872788,45.7533078 44.6871145,45.7338472 44.6873986,45.7143907 L44.8029578,37.7979009 C44.819749,36.647606 43.9008626,35.7014958 42.7505677,35.6847046 C42.740434,35.6845567 42.7302994,35.6844827 42.7201646,35.6844827 L41.4008971,35.6844827 C40.9844972,35.6844827 40.6469384,36.0220416 40.6469384,36.4384415 C40.6469384,36.45156 40.6472808,36.4646762 40.6479652,36.4777768 L40.6479652,36.4777768 C40.6708666,36.9161403 41.0443738,37.2531906 41.4827792,37.2311073 L42.6679804,37.1714064 C43.408858,37.1340869 44.0418833,37.6997424 44.0878162,38.4401359 L44.0878162,38.4401359 C44.1330092,39.1686041 43.5791053,39.7957804 42.8506371,39.8409734 C42.8449851,39.8413241 42.8393309,39.8416384 42.8336748,39.8419163 L41.5657156,39.9042282 C41.1288753,39.925696 40.7921494,40.2972281 40.8136172,40.7340684 C40.8136573,40.7348835 40.8136986,40.7356986 40.8137412,40.7365135 L40.8137412,40.7365135 C40.8360616,41.1637572 41.2005053,41.4920124 41.627749,41.4696919 C41.6342332,41.4693531 41.6407128,41.4689329 41.6471864,41.4684312 L42.7550951,41.3825734 C43.457801,41.328117 44.0716024,41.853627 44.1260588,42.5563328 C44.1275817,42.5759839 44.1286491,42.5956675 44.1292602,42.615368 L44.1292602,42.615368 C44.1520307,43.3494466 43.5754016,43.9629941 42.8413229,43.9857647 C42.8390265,43.9858359 42.8367298,43.9859012 42.834433,43.9859605 L42.3577833,43.9982732 C41.5763293,44.0184596 40.9591999,44.6683175 40.9793863,45.4497715 C40.9794272,45.4513563 40.9794708,45.4529411 40.9795171,45.4545258 L40.9833898,45.5871785 C41.0043534,46.3052435 40.4530558,46.9110163 39.7361975,46.9576093 L39.7361975,46.9576093 C39.0633928,47.001339 38.482527,46.491373 38.4387973,45.8185684 C38.4373942,45.7969809 38.4365651,45.7753599 38.436311,45.7537283 Z M32.8979395,31.9267739 L32.8979395,31.9267739 C32.8979395,31.7060614 32.7190167,31.5271385 32.4983042,31.5271385 C32.4924728,31.5271385 32.4866421,31.5272662 32.4808163,31.5275214 L30.5890179,31.6103854 C29.7556843,31.6468869 29.0481334,31.0060436 29.0022047,30.1731764 L29.0022047,30.1731764 C28.9588818,29.3875628 29.5606273,28.715577 30.3462409,28.6722541 C30.3723638,28.6708135 30.3985214,28.6700928 30.4246839,28.6700928 L32.0641264,28.6700928 C32.4330731,28.6700928 32.7321636,28.3710024 32.7321636,28.0020557 L32.7321636,28.0020557 C32.7321636,27.633109 33.031254,27.3340186 33.4002007,27.3340186 L35.0480935,27.3340186 C35.4170403,27.3340186 35.7161307,27.633109 35.7161307,28.0020557 L35.7161307,28.0020557 C35.7161307,28.3655769 36.0108228,28.660269 36.3743439,28.660269 C36.3775943,28.660269 36.3808445,28.6602449 36.3840945,28.6601968 L40.6845492,28.5964843 C41.0550453,28.5909953 41.352513,28.2890878 41.352513,27.9185511 L41.352513,27.9185511 C41.352513,27.5496043 41.6516034,27.2505139 42.0205501,27.2505139 L43.585555,27.2505139 C43.9545017,27.2505139 44.2535921,27.5496043 44.2535921,27.9185511 L44.2535921,27.9185511 C44.2535921,28.2785435 44.5454237,28.570375 44.9054161,28.570375 C44.9107539,28.570375 44.9160915,28.5703095 44.9214277,28.5701783 L46.5219844,28.5308499 C47.1548027,28.5153005 47.6884691,28.9990911 47.7348871,29.6303962 L47.7348871,29.6303962 C47.7793718,30.2354073 47.3249754,30.7619276 46.7199643,30.8064122 C46.7095025,30.8071815 46.6990302,30.8078008 46.6885506,30.80827 L44.590052,30.9022305 C44.3029194,30.9150869 44.0700661,31.139304 44.0463722,31.425746 L44.0463722,31.425746 C44.0229505,31.7088971 43.7863074,31.9267739 43.5021892,31.9267739 L41.7700362,31.9267739 C41.5394445,31.9267739 41.352513,31.7398423 41.352513,31.5092506 L41.352513,31.5092506 C41.352513,31.2885382 41.1735902,31.1096153 40.9528777,31.1096153 C40.9470463,31.1096153 40.9412156,31.109743 40.9353897,31.1099982 L36.0920783,31.3221436 C35.8354858,31.3333828 35.6332427,31.5446784 35.6332427,31.8015169 L35.6332427,31.8015169 C35.6332427,32.0574037 35.4299487,32.2669987 35.174181,32.2748069 L33.3152683,32.3315567 C33.0917129,32.3383815 32.9049529,32.1626866 32.8981281,31.9391313 C32.8980024,31.9350133 32.8979395,31.9308937 32.8979395,31.9267739 Z M50.94222,32.0606411 L50.9260741,31.1334798 C50.9031584,29.8175627 51.9485123,28.7307933 53.2643267,28.7025889 L57.8800334,28.6036518 C58.3328811,28.593945 58.7056495,28.2445647 58.7446377,27.7932941 L58.7446377,27.7932941 C58.7834087,27.3445379 59.1589969,27 59.6094248,27 L61.2389352,27 C61.6611715,27 62.0098138,27.3299461 62.0330628,27.7515418 L62.0330628,27.7515418 C62.0561739,28.1706361 62.4073829,28.4959484 62.8270176,28.4869536 L67.5269151,28.3862118 C68.7472926,28.3600531 69.7578098,29.3281588 69.7839685,30.5485363 C69.7848664,30.5904255 69.7845729,30.6323317 69.7830885,30.6742042 L69.7530797,31.5207035 C69.7238118,32.3463019 69.0340107,32.9936912 68.208217,32.9705819 L67.6797302,32.9557925 C67.1776695,32.9417426 66.7820586,32.5233523 66.7961085,32.0212916 C66.7966014,32.0036776 66.7976061,31.9860817 66.7991214,31.9685262 L66.7991214,31.9685262 C66.8405871,31.4881237 66.4847584,31.065066 66.004356,31.0236004 C65.9757112,31.0211279 65.9469618,31.0200719 65.9182128,31.0204362 L54.7914541,31.1614367 C54.2272546,31.1685864 53.7756765,31.6317564 53.7828261,32.1959559 C53.7831003,32.2175931 53.7840618,32.2392162 53.7857093,32.2607924 L53.7857093,32.2607924 C53.8306388,32.8492215 53.3900454,33.36266 52.8016163,33.4075895 C52.7949741,33.4080967 52.7883272,33.4085417 52.7816767,33.4089246 L52.4180577,33.4298574 C51.6484379,33.4741629 50.9886211,32.8861794 50.9443156,32.1165596 C50.9432435,32.097936 50.9425448,32.0792927 50.94222,32.0606411 Z M70.0250722,44.4417552 L70.0317525,44.5359747 C70.0766711,45.1695147 69.5994993,45.7195141 68.9659593,45.7644328 C68.9587156,45.7649464 68.9514672,45.7653913 68.9442151,45.7657676 L52.2218287,46.6334138 C51.4360515,46.6741841 50.7647187,46.0730128 50.7188542,45.2875165 L50.7188542,45.2875165 C50.6743846,44.5259088 51.2557399,43.8724541 52.0173476,43.8279845 C52.0306729,43.8272064 52.0440089,43.8266215 52.0573512,43.82623 L57.9207118,43.654182 C58.6099845,43.6339567 59.1523547,43.058795 59.1321294,42.3695222 C59.1320838,42.3679661 59.1320352,42.36641 59.1319837,42.3648541 L59.1319837,42.3648541 C59.1090932,41.6730312 58.5297886,41.1307058 57.8379604,41.1534333 L52.6340146,41.3243897 C51.9878102,41.3456183 51.4463083,40.8398805 51.423402,40.1937334 L51.423402,40.1937334 C51.4004574,39.5465058 51.903623,39.0018186 52.5506368,38.9734782 L58.089047,38.7308863 C58.5957119,38.7086935 58.9884542,38.2799696 58.9662614,37.7733047 C58.9662438,37.7729027 58.9662259,37.7725007 58.9662078,37.7720988 L58.9662078,37.7720988 C58.9435245,37.2693535 58.5175805,36.8801864 58.0148352,36.9028697 C58.0120975,36.9029932 58.0093604,36.9031291 58.006624,36.9032773 L52.6360975,37.1941634 C51.8509342,37.2366906 51.1791282,36.6364692 51.1332941,35.851492 L51.1332941,35.851492 C51.0891238,35.0950106 51.6665661,34.4459541 52.4230475,34.4017838 C52.4393653,34.400831 52.4556988,34.4001699 52.4720402,34.3998008 L68.4483505,34.0389225 C69.0508894,34.0253122 69.5528761,34.4976963 69.5758686,35.0999502 L69.5758686,35.0999502 C69.5988715,35.7024747 69.1346637,36.212227 68.5326219,36.2455524 L63.0333424,36.5499586 C62.4954295,36.5797341 62.0745068,37.0246008 62.0745068,37.5633372 L62.0745068,37.5633372 C62.0745068,38.0697009 62.4849957,38.4801898 62.9913594,38.4801898 C63.0055059,38.4801898 63.0196504,38.4798624 63.0337817,38.4792078 L67.9868734,38.2497852 C68.7143927,38.2160872 69.3404531,38.7589818 69.4100927,39.4839439 L69.4100927,39.4839439 C69.474616,40.1556451 68.982401,40.752473 68.3106998,40.8169963 C68.2854827,40.8194187 68.2601963,40.8210561 68.2348773,40.8219064 L63.3270558,40.9867175 C62.6221944,41.0103877 62.0563851,41.5764764 62.0330628,42.2813494 L62.0330628,42.2813494 C62.0115141,42.9326217 62.5220059,43.478051 63.1732782,43.4995997 C63.1969812,43.500384 63.2207024,43.5004534 63.2444096,43.4998079 L64.3906843,43.468597 C64.7623985,43.458476 65.0584739,43.1542292 65.0584739,42.7823773 L65.0584739,42.7823773 C65.0584739,42.4134305 65.3575644,42.1143401 65.7265111,42.1143401 L67.1674923,42.1143401 C67.5133799,42.1143401 67.7937771,42.3947374 67.7937771,42.7406249 L67.7937771,42.7406249 C67.7937771,43.0865125 68.0741744,43.3669098 68.4200619,43.3669098 L68.8713208,43.3669098 C69.4783766,43.3669098 69.9821391,43.8362195 70.0250722,44.4417552 Z M72.9075335,31.9771365 L72.8913876,31.0499751 C72.8684718,29.734058 73.9138258,28.6472886 75.2296401,28.6190843 L79.9684082,28.5175093 C80.3039913,28.5103162 80.5702039,28.2324411 80.5630107,27.8968579 C80.5625678,27.8761912 80.5610707,27.8555606 80.5585253,27.8350464 L80.5585253,27.8350464 C80.5161725,27.4937031 80.7585522,27.1826559 81.0998955,27.1403031 C81.1159022,27.1383171 81.1319799,27.1369536 81.1480924,27.1362157 L83.4124542,27.0325245 C83.7658749,27.0163404 84.0654988,27.2897247 84.0816829,27.6431454 C84.0826998,27.6653523 84.0825601,27.6875971 84.0812643,27.7097895 L84.0812643,27.7097895 C84.0601318,28.0717147 84.3363989,28.3822443 84.6983241,28.4033768 C84.7157481,28.4043942 84.7332057,28.4047163 84.7506554,28.4043422 L89.4922286,28.3027071 C90.7126061,28.2765485 91.7231233,29.2446542 91.749282,30.4650317 C91.7501799,30.5069209 91.7498864,30.5488271 91.748402,30.5906996 L91.7183932,31.4371989 C91.6891252,32.2627973 90.9993242,32.9101866 90.1735305,32.8870772 L89.6450437,32.8722878 C89.142983,32.8582379 88.7473721,32.4398476 88.7614219,31.937787 C88.7619149,31.920173 88.7629196,31.9025771 88.7644349,31.8850215 L88.7644349,31.8850215 C88.8059005,31.4046191 88.4500719,30.9815614 87.9696694,30.9400957 C87.9410247,30.9376233 87.9122753,30.9365673 87.8835263,30.9369316 L76.7567676,31.0779321 C76.1925681,31.0850817 75.7409899,31.5482517 75.7481396,32.1124512 C75.7484138,32.1340885 75.7493753,32.1557116 75.7510228,32.1772878 L75.7510228,32.1772878 C75.7959523,32.7657168 75.3553589,33.2791554 74.7669298,33.3240849 C74.7602876,33.324592 74.7536407,33.3250371 74.7469901,33.32542 L74.3833712,33.3463528 C73.6137514,33.3906582 72.9539346,32.8026748 72.9096291,32.033055 C72.908557,32.0144313 72.9078583,31.9957881 72.9075335,31.9771365 Z M91.9874546,44.3169104 L91.9970659,44.4524701 C92.0419846,45.0860101 91.5648128,45.6360095 90.9312728,45.6809281 C90.9240291,45.6814417 90.9167807,45.6818867 90.9095286,45.682263 L74.1871422,46.5499092 C73.401365,46.5906794 72.7300321,45.9895082 72.6841677,45.2040119 L72.6841677,45.2040119 C72.6396981,44.4424042 73.2210533,43.7889494 73.982661,43.7444798 C73.9959864,43.7437018 74.0093223,43.7431169 74.0226647,43.7427254 L79.8860253,43.5706774 C80.575298,43.5504521 81.1176682,42.9752903 81.0974429,42.2860176 C81.0973972,42.2844614 81.0973487,42.2829054 81.0972972,42.2813494 L81.0972972,42.2813494 C81.0744067,41.5895266 80.495102,41.0472012 79.8032738,41.0699286 L74.5993281,41.240885 C73.9531237,41.2621137 73.4116217,40.7563759 73.3887155,40.1102287 L73.3887155,40.1102287 C73.3657709,39.4630012 73.8689365,38.9183139 74.5159503,38.8899736 L80.0543605,38.6473817 C80.5610254,38.6251889 80.9537676,38.196465 80.9315748,37.6898001 C80.9315572,37.6893981 80.9315394,37.6889961 80.9315212,37.6885941 L80.9315212,37.6885941 C80.9088379,37.1858489 80.4828939,36.7966818 79.9801487,36.8193651 C79.977411,36.8194886 79.9746739,36.8196245 79.9719375,36.8197727 L74.601411,37.1106588 C73.8162477,37.1531859 73.1444417,36.5529646 73.0986076,35.7679874 L73.0986076,35.7679874 C73.0544373,35.0115059 73.6318796,34.3624494 74.388361,34.3182791 C74.4046788,34.3173264 74.4210123,34.3166652 74.4373537,34.3162961 L90.413664,33.9554179 C91.0162029,33.9418075 91.5181895,34.4141917 91.5411821,35.0164456 L91.5411821,35.0164456 C91.564185,35.6189701 91.0999772,36.1287224 90.4979354,36.1620477 L84.9986558,36.4664539 C84.460743,36.4962295 84.0398203,36.9410962 84.0398203,37.4798325 L84.0398203,37.4798325 C84.0398203,37.9861962 84.4503092,38.3966851 84.9566729,38.3966851 C84.9708194,38.3966851 84.9849639,38.3963577 84.9990952,38.3957032 L89.9521869,38.1662806 C90.6797061,38.1325826 91.3057666,38.6754771 91.3754061,39.4004393 L91.3754061,39.4004393 C91.4399294,40.0721405 90.9477145,40.6689684 90.2760133,40.7334917 C90.2507961,40.735914 90.2255097,40.7375515 90.2001908,40.7384017 L85.2923693,40.9032129 C84.5875079,40.9268831 84.0216986,41.4929717 83.9983763,42.1978448 L83.9983763,42.1978448 C83.9768276,42.8491171 84.4873194,43.3945463 85.1385917,43.4160951 C85.1622947,43.4168794 85.1860159,43.4169488 85.2097231,43.4163033 L86.2307872,43.3885016 C86.6721978,43.3764829 87.0237874,43.0151898 87.0237874,42.5736157 L87.0237874,42.5736157 C87.0237874,42.1354914 87.3789573,41.7803216 87.8170815,41.7803216 L89.0904368,41.7803216 C89.5055019,41.7803216 89.8419786,42.1167983 89.8419786,42.5318633 L89.8419786,42.5318633 C89.8419786,42.9469284 90.1784553,43.2834051 90.5935204,43.2834051 L90.8780783,43.2834051 C91.4617858,43.2834051 91.9461727,43.7346645 91.9874546,44.3169104 Z" id="萌宝宝" fill="#FFFFFF"></path>
                        </g>
                    </g>
                </g>
            </g>
        </g>
    </g>
</svg>